%TF.GenerationSoftware,KiCad,Pcbnew,9.0.6-9.0.6~ubuntu25.04.1*%
%TF.CreationDate,2025-12-30T14:46:31-08:00*%
%TF.ProjectId,buzzer-pcb,62757a7a-6572-42d7-9063-622e6b696361,0*%
%TF.SameCoordinates,Original*%
%TF.FileFunction,Copper,L1,Top*%
%TF.FilePolarity,Positive*%
%FSLAX46Y46*%
G04 Gerber Fmt 4.6, Leading zero omitted, Abs format (unit mm)*
G04 Created by KiCad (PCBNEW 9.0.6-9.0.6~ubuntu25.04.1) date 2025-12-30 14:46:31*
%MOMM*%
%LPD*%
G01*
G04 APERTURE LIST*
G04 Aperture macros list*
%AMRoundRect*
0 Rectangle with rounded corners*
0 $1 Rounding radius*
0 $2 $3 $4 $5 $6 $7 $8 $9 X,Y pos of 4 corners*
0 Add a 4 corners polygon primitive as box body*
4,1,4,$2,$3,$4,$5,$6,$7,$8,$9,$2,$3,0*
0 Add four circle primitives for the rounded corners*
1,1,$1+$1,$2,$3*
1,1,$1+$1,$4,$5*
1,1,$1+$1,$6,$7*
1,1,$1+$1,$8,$9*
0 Add four rect primitives between the rounded corners*
20,1,$1+$1,$2,$3,$4,$5,0*
20,1,$1+$1,$4,$5,$6,$7,0*
20,1,$1+$1,$6,$7,$8,$9,0*
20,1,$1+$1,$8,$9,$2,$3,0*%
%AMFreePoly0*
4,1,37,0.603843,0.796157,0.639018,0.796157,0.711114,0.766294,0.766294,0.711114,0.796157,0.639018,0.796157,0.603843,0.800000,0.600000,0.800000,-0.600000,0.796157,-0.603843,0.796157,-0.639018,0.766294,-0.711114,0.711114,-0.766294,0.639018,-0.796157,0.603843,-0.796157,0.600000,-0.800000,0.000000,-0.800000,0.000000,-0.796148,-0.078414,-0.796148,-0.232228,-0.765552,-0.377117,-0.705537,
-0.507515,-0.618408,-0.618408,-0.507515,-0.705537,-0.377117,-0.765552,-0.232228,-0.796148,-0.078414,-0.796148,0.078414,-0.765552,0.232228,-0.705537,0.377117,-0.618408,0.507515,-0.507515,0.618408,-0.377117,0.705537,-0.232228,0.765552,-0.078414,0.796148,0.000000,0.796148,0.000000,0.800000,0.600000,0.800000,0.603843,0.796157,0.603843,0.796157,$1*%
%AMFreePoly1*
4,1,37,0.000000,0.796148,0.078414,0.796148,0.232228,0.765552,0.377117,0.705537,0.507515,0.618408,0.618408,0.507515,0.705537,0.377117,0.765552,0.232228,0.796148,0.078414,0.796148,-0.078414,0.765552,-0.232228,0.705537,-0.377117,0.618408,-0.507515,0.507515,-0.618408,0.377117,-0.705537,0.232228,-0.765552,0.078414,-0.796148,0.000000,-0.796148,0.000000,-0.800000,-0.600000,-0.800000,
-0.603843,-0.796157,-0.639018,-0.796157,-0.711114,-0.766294,-0.766294,-0.711114,-0.796157,-0.639018,-0.796157,-0.603843,-0.800000,-0.600000,-0.800000,0.600000,-0.796157,0.603843,-0.796157,0.639018,-0.766294,0.711114,-0.711114,0.766294,-0.639018,0.796157,-0.603843,0.796157,-0.600000,0.800000,0.000000,0.800000,0.000000,0.796148,0.000000,0.796148,$1*%
G04 Aperture macros list end*
%ADD10C,0.300000*%
%TA.AperFunction,NonConductor*%
%ADD11C,0.300000*%
%TD*%
%TA.AperFunction,EtchedComponent*%
%ADD12C,0.000000*%
%TD*%
%TA.AperFunction,ComponentPad*%
%ADD13C,2.400000*%
%TD*%
%TA.AperFunction,ComponentPad*%
%ADD14R,4.500000X2.500000*%
%TD*%
%TA.AperFunction,ComponentPad*%
%ADD15O,4.500000X2.500000*%
%TD*%
%TA.AperFunction,ComponentPad*%
%ADD16RoundRect,0.250000X0.650000X0.650000X-0.650000X0.650000X-0.650000X-0.650000X0.650000X-0.650000X0*%
%TD*%
%TA.AperFunction,ComponentPad*%
%ADD17C,1.800000*%
%TD*%
%TA.AperFunction,ComponentPad*%
%ADD18C,1.308000*%
%TD*%
%TA.AperFunction,ComponentPad*%
%ADD19R,1.800000X1.800000*%
%TD*%
%TA.AperFunction,SMDPad,CuDef*%
%ADD20R,1.000000X1.500000*%
%TD*%
%TA.AperFunction,ComponentPad*%
%ADD21RoundRect,0.250000X-0.650000X-0.650000X0.650000X-0.650000X0.650000X0.650000X-0.650000X0.650000X0*%
%TD*%
%TA.AperFunction,ComponentPad*%
%ADD22RoundRect,0.200000X0.600000X-0.600000X0.600000X0.600000X-0.600000X0.600000X-0.600000X-0.600000X0*%
%TD*%
%TA.AperFunction,ComponentPad*%
%ADD23C,1.600000*%
%TD*%
%TA.AperFunction,ComponentPad*%
%ADD24FreePoly0,90.000000*%
%TD*%
%TA.AperFunction,ComponentPad*%
%ADD25FreePoly1,90.000000*%
%TD*%
%TA.AperFunction,ViaPad*%
%ADD26C,0.600000*%
%TD*%
%TA.AperFunction,Conductor*%
%ADD27C,0.200000*%
%TD*%
G04 APERTURE END LIST*
D10*
D11*
X105457341Y-69678570D02*
X105457341Y-68964285D01*
X105885912Y-69821427D02*
X104385912Y-69321427D01*
X104385912Y-69321427D02*
X105885912Y-68821427D01*
X104885912Y-68321428D02*
X105885912Y-68321428D01*
X105028769Y-68321428D02*
X104957341Y-68249999D01*
X104957341Y-68249999D02*
X104885912Y-68107142D01*
X104885912Y-68107142D02*
X104885912Y-67892856D01*
X104885912Y-67892856D02*
X104957341Y-67749999D01*
X104957341Y-67749999D02*
X105100198Y-67678571D01*
X105100198Y-67678571D02*
X105885912Y-67678571D01*
X104885912Y-66964285D02*
X105885912Y-66964285D01*
X105028769Y-66964285D02*
X104957341Y-66892856D01*
X104957341Y-66892856D02*
X104885912Y-66749999D01*
X104885912Y-66749999D02*
X104885912Y-66535713D01*
X104885912Y-66535713D02*
X104957341Y-66392856D01*
X104957341Y-66392856D02*
X105100198Y-66321428D01*
X105100198Y-66321428D02*
X105885912Y-66321428D01*
X105885912Y-65607142D02*
X104885912Y-65607142D01*
X104385912Y-65607142D02*
X104457341Y-65678570D01*
X104457341Y-65678570D02*
X104528769Y-65607142D01*
X104528769Y-65607142D02*
X104457341Y-65535713D01*
X104457341Y-65535713D02*
X104385912Y-65607142D01*
X104385912Y-65607142D02*
X104528769Y-65607142D01*
X105885912Y-64892856D02*
X104385912Y-64892856D01*
X105314484Y-64749999D02*
X105885912Y-64321427D01*
X104885912Y-64321427D02*
X105457341Y-64892856D01*
X105885912Y-63035713D02*
X105100198Y-63035713D01*
X105100198Y-63035713D02*
X104957341Y-63107141D01*
X104957341Y-63107141D02*
X104885912Y-63249998D01*
X104885912Y-63249998D02*
X104885912Y-63535713D01*
X104885912Y-63535713D02*
X104957341Y-63678570D01*
X105814484Y-63035713D02*
X105885912Y-63178570D01*
X105885912Y-63178570D02*
X105885912Y-63535713D01*
X105885912Y-63535713D02*
X105814484Y-63678570D01*
X105814484Y-63678570D02*
X105671626Y-63749998D01*
X105671626Y-63749998D02*
X105528769Y-63749998D01*
X105528769Y-63749998D02*
X105385912Y-63678570D01*
X105385912Y-63678570D02*
X105314484Y-63535713D01*
X105314484Y-63535713D02*
X105314484Y-63178570D01*
X105314484Y-63178570D02*
X105243055Y-63035713D01*
X104385912Y-62249998D02*
X104671626Y-62392855D01*
X105814484Y-61678569D02*
X105885912Y-61535712D01*
X105885912Y-61535712D02*
X105885912Y-61249998D01*
X105885912Y-61249998D02*
X105814484Y-61107141D01*
X105814484Y-61107141D02*
X105671626Y-61035712D01*
X105671626Y-61035712D02*
X105600198Y-61035712D01*
X105600198Y-61035712D02*
X105457341Y-61107141D01*
X105457341Y-61107141D02*
X105385912Y-61249998D01*
X105385912Y-61249998D02*
X105385912Y-61464284D01*
X105385912Y-61464284D02*
X105314484Y-61607141D01*
X105314484Y-61607141D02*
X105171626Y-61678569D01*
X105171626Y-61678569D02*
X105100198Y-61678569D01*
X105100198Y-61678569D02*
X104957341Y-61607141D01*
X104957341Y-61607141D02*
X104885912Y-61464284D01*
X104885912Y-61464284D02*
X104885912Y-61249998D01*
X104885912Y-61249998D02*
X104957341Y-61107141D01*
X105100198Y-58749998D02*
X105171626Y-58535712D01*
X105171626Y-58535712D02*
X105243055Y-58464283D01*
X105243055Y-58464283D02*
X105385912Y-58392855D01*
X105385912Y-58392855D02*
X105600198Y-58392855D01*
X105600198Y-58392855D02*
X105743055Y-58464283D01*
X105743055Y-58464283D02*
X105814484Y-58535712D01*
X105814484Y-58535712D02*
X105885912Y-58678569D01*
X105885912Y-58678569D02*
X105885912Y-59249998D01*
X105885912Y-59249998D02*
X104385912Y-59249998D01*
X104385912Y-59249998D02*
X104385912Y-58749998D01*
X104385912Y-58749998D02*
X104457341Y-58607141D01*
X104457341Y-58607141D02*
X104528769Y-58535712D01*
X104528769Y-58535712D02*
X104671626Y-58464283D01*
X104671626Y-58464283D02*
X104814484Y-58464283D01*
X104814484Y-58464283D02*
X104957341Y-58535712D01*
X104957341Y-58535712D02*
X105028769Y-58607141D01*
X105028769Y-58607141D02*
X105100198Y-58749998D01*
X105100198Y-58749998D02*
X105100198Y-59249998D01*
X104885912Y-57107141D02*
X105885912Y-57107141D01*
X104885912Y-57749998D02*
X105671626Y-57749998D01*
X105671626Y-57749998D02*
X105814484Y-57678569D01*
X105814484Y-57678569D02*
X105885912Y-57535712D01*
X105885912Y-57535712D02*
X105885912Y-57321426D01*
X105885912Y-57321426D02*
X105814484Y-57178569D01*
X105814484Y-57178569D02*
X105743055Y-57107141D01*
X104885912Y-56535712D02*
X104885912Y-55749998D01*
X104885912Y-55749998D02*
X105885912Y-56535712D01*
X105885912Y-56535712D02*
X105885912Y-55749998D01*
X104885912Y-55321426D02*
X104885912Y-54535712D01*
X104885912Y-54535712D02*
X105885912Y-55321426D01*
X105885912Y-55321426D02*
X105885912Y-54535712D01*
X105814484Y-53392854D02*
X105885912Y-53535711D01*
X105885912Y-53535711D02*
X105885912Y-53821426D01*
X105885912Y-53821426D02*
X105814484Y-53964283D01*
X105814484Y-53964283D02*
X105671626Y-54035711D01*
X105671626Y-54035711D02*
X105100198Y-54035711D01*
X105100198Y-54035711D02*
X104957341Y-53964283D01*
X104957341Y-53964283D02*
X104885912Y-53821426D01*
X104885912Y-53821426D02*
X104885912Y-53535711D01*
X104885912Y-53535711D02*
X104957341Y-53392854D01*
X104957341Y-53392854D02*
X105100198Y-53321426D01*
X105100198Y-53321426D02*
X105243055Y-53321426D01*
X105243055Y-53321426D02*
X105385912Y-54035711D01*
X105885912Y-52678569D02*
X104885912Y-52678569D01*
X105171626Y-52678569D02*
X105028769Y-52607140D01*
X105028769Y-52607140D02*
X104957341Y-52535712D01*
X104957341Y-52535712D02*
X104885912Y-52392854D01*
X104885912Y-52392854D02*
X104885912Y-52249997D01*
X105814484Y-50678569D02*
X105885912Y-50464284D01*
X105885912Y-50464284D02*
X105885912Y-50107141D01*
X105885912Y-50107141D02*
X105814484Y-49964284D01*
X105814484Y-49964284D02*
X105743055Y-49892855D01*
X105743055Y-49892855D02*
X105600198Y-49821426D01*
X105600198Y-49821426D02*
X105457341Y-49821426D01*
X105457341Y-49821426D02*
X105314484Y-49892855D01*
X105314484Y-49892855D02*
X105243055Y-49964284D01*
X105243055Y-49964284D02*
X105171626Y-50107141D01*
X105171626Y-50107141D02*
X105100198Y-50392855D01*
X105100198Y-50392855D02*
X105028769Y-50535712D01*
X105028769Y-50535712D02*
X104957341Y-50607141D01*
X104957341Y-50607141D02*
X104814484Y-50678569D01*
X104814484Y-50678569D02*
X104671626Y-50678569D01*
X104671626Y-50678569D02*
X104528769Y-50607141D01*
X104528769Y-50607141D02*
X104457341Y-50535712D01*
X104457341Y-50535712D02*
X104385912Y-50392855D01*
X104385912Y-50392855D02*
X104385912Y-50035712D01*
X104385912Y-50035712D02*
X104457341Y-49821426D01*
X104885912Y-49321427D02*
X105885912Y-48964284D01*
X104885912Y-48607141D02*
X105885912Y-48964284D01*
X105885912Y-48964284D02*
X106243055Y-49107141D01*
X106243055Y-49107141D02*
X106314484Y-49178570D01*
X106314484Y-49178570D02*
X106385912Y-49321427D01*
X105814484Y-48107141D02*
X105885912Y-47964284D01*
X105885912Y-47964284D02*
X105885912Y-47678570D01*
X105885912Y-47678570D02*
X105814484Y-47535713D01*
X105814484Y-47535713D02*
X105671626Y-47464284D01*
X105671626Y-47464284D02*
X105600198Y-47464284D01*
X105600198Y-47464284D02*
X105457341Y-47535713D01*
X105457341Y-47535713D02*
X105385912Y-47678570D01*
X105385912Y-47678570D02*
X105385912Y-47892856D01*
X105385912Y-47892856D02*
X105314484Y-48035713D01*
X105314484Y-48035713D02*
X105171626Y-48107141D01*
X105171626Y-48107141D02*
X105100198Y-48107141D01*
X105100198Y-48107141D02*
X104957341Y-48035713D01*
X104957341Y-48035713D02*
X104885912Y-47892856D01*
X104885912Y-47892856D02*
X104885912Y-47678570D01*
X104885912Y-47678570D02*
X104957341Y-47535713D01*
X104885912Y-47035712D02*
X104885912Y-46464284D01*
X104385912Y-46821427D02*
X105671626Y-46821427D01*
X105671626Y-46821427D02*
X105814484Y-46749998D01*
X105814484Y-46749998D02*
X105885912Y-46607141D01*
X105885912Y-46607141D02*
X105885912Y-46464284D01*
X105814484Y-45392855D02*
X105885912Y-45535712D01*
X105885912Y-45535712D02*
X105885912Y-45821427D01*
X105885912Y-45821427D02*
X105814484Y-45964284D01*
X105814484Y-45964284D02*
X105671626Y-46035712D01*
X105671626Y-46035712D02*
X105100198Y-46035712D01*
X105100198Y-46035712D02*
X104957341Y-45964284D01*
X104957341Y-45964284D02*
X104885912Y-45821427D01*
X104885912Y-45821427D02*
X104885912Y-45535712D01*
X104885912Y-45535712D02*
X104957341Y-45392855D01*
X104957341Y-45392855D02*
X105100198Y-45321427D01*
X105100198Y-45321427D02*
X105243055Y-45321427D01*
X105243055Y-45321427D02*
X105385912Y-46035712D01*
X105885912Y-44678570D02*
X104885912Y-44678570D01*
X105028769Y-44678570D02*
X104957341Y-44607141D01*
X104957341Y-44607141D02*
X104885912Y-44464284D01*
X104885912Y-44464284D02*
X104885912Y-44249998D01*
X104885912Y-44249998D02*
X104957341Y-44107141D01*
X104957341Y-44107141D02*
X105100198Y-44035713D01*
X105100198Y-44035713D02*
X105885912Y-44035713D01*
X105100198Y-44035713D02*
X104957341Y-43964284D01*
X104957341Y-43964284D02*
X104885912Y-43821427D01*
X104885912Y-43821427D02*
X104885912Y-43607141D01*
X104885912Y-43607141D02*
X104957341Y-43464284D01*
X104957341Y-43464284D02*
X105100198Y-43392855D01*
X105100198Y-43392855D02*
X105885912Y-43392855D01*
X105814484Y-42607141D02*
X105885912Y-42607141D01*
X105885912Y-42607141D02*
X106028769Y-42678570D01*
X106028769Y-42678570D02*
X106100198Y-42749998D01*
X105885912Y-39964284D02*
X105171626Y-40464284D01*
X105885912Y-40821427D02*
X104385912Y-40821427D01*
X104385912Y-40821427D02*
X104385912Y-40249998D01*
X104385912Y-40249998D02*
X104457341Y-40107141D01*
X104457341Y-40107141D02*
X104528769Y-40035712D01*
X104528769Y-40035712D02*
X104671626Y-39964284D01*
X104671626Y-39964284D02*
X104885912Y-39964284D01*
X104885912Y-39964284D02*
X105028769Y-40035712D01*
X105028769Y-40035712D02*
X105100198Y-40107141D01*
X105100198Y-40107141D02*
X105171626Y-40249998D01*
X105171626Y-40249998D02*
X105171626Y-40821427D01*
X105814484Y-38749998D02*
X105885912Y-38892855D01*
X105885912Y-38892855D02*
X105885912Y-39178570D01*
X105885912Y-39178570D02*
X105814484Y-39321427D01*
X105814484Y-39321427D02*
X105671626Y-39392855D01*
X105671626Y-39392855D02*
X105100198Y-39392855D01*
X105100198Y-39392855D02*
X104957341Y-39321427D01*
X104957341Y-39321427D02*
X104885912Y-39178570D01*
X104885912Y-39178570D02*
X104885912Y-38892855D01*
X104885912Y-38892855D02*
X104957341Y-38749998D01*
X104957341Y-38749998D02*
X105100198Y-38678570D01*
X105100198Y-38678570D02*
X105243055Y-38678570D01*
X105243055Y-38678570D02*
X105385912Y-39392855D01*
X104885912Y-38178570D02*
X105885912Y-37821427D01*
X105885912Y-37821427D02*
X104885912Y-37464284D01*
X105885912Y-36892856D02*
X104885912Y-36892856D01*
X104385912Y-36892856D02*
X104457341Y-36964284D01*
X104457341Y-36964284D02*
X104528769Y-36892856D01*
X104528769Y-36892856D02*
X104457341Y-36821427D01*
X104457341Y-36821427D02*
X104385912Y-36892856D01*
X104385912Y-36892856D02*
X104528769Y-36892856D01*
X105814484Y-36249998D02*
X105885912Y-36107141D01*
X105885912Y-36107141D02*
X105885912Y-35821427D01*
X105885912Y-35821427D02*
X105814484Y-35678570D01*
X105814484Y-35678570D02*
X105671626Y-35607141D01*
X105671626Y-35607141D02*
X105600198Y-35607141D01*
X105600198Y-35607141D02*
X105457341Y-35678570D01*
X105457341Y-35678570D02*
X105385912Y-35821427D01*
X105385912Y-35821427D02*
X105385912Y-36035713D01*
X105385912Y-36035713D02*
X105314484Y-36178570D01*
X105314484Y-36178570D02*
X105171626Y-36249998D01*
X105171626Y-36249998D02*
X105100198Y-36249998D01*
X105100198Y-36249998D02*
X104957341Y-36178570D01*
X104957341Y-36178570D02*
X104885912Y-36035713D01*
X104885912Y-36035713D02*
X104885912Y-35821427D01*
X104885912Y-35821427D02*
X104957341Y-35678570D01*
X105885912Y-34964284D02*
X104885912Y-34964284D01*
X104385912Y-34964284D02*
X104457341Y-35035712D01*
X104457341Y-35035712D02*
X104528769Y-34964284D01*
X104528769Y-34964284D02*
X104457341Y-34892855D01*
X104457341Y-34892855D02*
X104385912Y-34964284D01*
X104385912Y-34964284D02*
X104528769Y-34964284D01*
X105885912Y-34035712D02*
X105814484Y-34178569D01*
X105814484Y-34178569D02*
X105743055Y-34249998D01*
X105743055Y-34249998D02*
X105600198Y-34321426D01*
X105600198Y-34321426D02*
X105171626Y-34321426D01*
X105171626Y-34321426D02*
X105028769Y-34249998D01*
X105028769Y-34249998D02*
X104957341Y-34178569D01*
X104957341Y-34178569D02*
X104885912Y-34035712D01*
X104885912Y-34035712D02*
X104885912Y-33821426D01*
X104885912Y-33821426D02*
X104957341Y-33678569D01*
X104957341Y-33678569D02*
X105028769Y-33607141D01*
X105028769Y-33607141D02*
X105171626Y-33535712D01*
X105171626Y-33535712D02*
X105600198Y-33535712D01*
X105600198Y-33535712D02*
X105743055Y-33607141D01*
X105743055Y-33607141D02*
X105814484Y-33678569D01*
X105814484Y-33678569D02*
X105885912Y-33821426D01*
X105885912Y-33821426D02*
X105885912Y-34035712D01*
X104885912Y-32892855D02*
X105885912Y-32892855D01*
X105028769Y-32892855D02*
X104957341Y-32821426D01*
X104957341Y-32821426D02*
X104885912Y-32678569D01*
X104885912Y-32678569D02*
X104885912Y-32464283D01*
X104885912Y-32464283D02*
X104957341Y-32321426D01*
X104957341Y-32321426D02*
X105100198Y-32249998D01*
X105100198Y-32249998D02*
X105885912Y-32249998D01*
X105885912Y-29607140D02*
X105885912Y-30464283D01*
X105885912Y-30035712D02*
X104385912Y-30035712D01*
X104385912Y-30035712D02*
X104600198Y-30178569D01*
X104600198Y-30178569D02*
X104743055Y-30321426D01*
X104743055Y-30321426D02*
X104814484Y-30464283D01*
X106457341Y-27392855D02*
X106385912Y-27464284D01*
X106385912Y-27464284D02*
X106171626Y-27607141D01*
X106171626Y-27607141D02*
X106028769Y-27678570D01*
X106028769Y-27678570D02*
X105814484Y-27749998D01*
X105814484Y-27749998D02*
X105457341Y-27821427D01*
X105457341Y-27821427D02*
X105171626Y-27821427D01*
X105171626Y-27821427D02*
X104814484Y-27749998D01*
X104814484Y-27749998D02*
X104600198Y-27678570D01*
X104600198Y-27678570D02*
X104457341Y-27607141D01*
X104457341Y-27607141D02*
X104243055Y-27464284D01*
X104243055Y-27464284D02*
X104171626Y-27392855D01*
X105885912Y-26035712D02*
X105885912Y-26892855D01*
X105885912Y-26464284D02*
X104385912Y-26464284D01*
X104385912Y-26464284D02*
X104600198Y-26607141D01*
X104600198Y-26607141D02*
X104743055Y-26749998D01*
X104743055Y-26749998D02*
X104814484Y-26892855D01*
X104528769Y-25464284D02*
X104457341Y-25392856D01*
X104457341Y-25392856D02*
X104385912Y-25249999D01*
X104385912Y-25249999D02*
X104385912Y-24892856D01*
X104385912Y-24892856D02*
X104457341Y-24749999D01*
X104457341Y-24749999D02*
X104528769Y-24678570D01*
X104528769Y-24678570D02*
X104671626Y-24607141D01*
X104671626Y-24607141D02*
X104814484Y-24607141D01*
X104814484Y-24607141D02*
X105028769Y-24678570D01*
X105028769Y-24678570D02*
X105885912Y-25535713D01*
X105885912Y-25535713D02*
X105885912Y-24607141D01*
X104314484Y-22892856D02*
X106243055Y-24178570D01*
X104528769Y-22464284D02*
X104457341Y-22392856D01*
X104457341Y-22392856D02*
X104385912Y-22249999D01*
X104385912Y-22249999D02*
X104385912Y-21892856D01*
X104385912Y-21892856D02*
X104457341Y-21749999D01*
X104457341Y-21749999D02*
X104528769Y-21678570D01*
X104528769Y-21678570D02*
X104671626Y-21607141D01*
X104671626Y-21607141D02*
X104814484Y-21607141D01*
X104814484Y-21607141D02*
X105028769Y-21678570D01*
X105028769Y-21678570D02*
X105885912Y-22535713D01*
X105885912Y-22535713D02*
X105885912Y-21607141D01*
X104385912Y-20678570D02*
X104385912Y-20535713D01*
X104385912Y-20535713D02*
X104457341Y-20392856D01*
X104457341Y-20392856D02*
X104528769Y-20321428D01*
X104528769Y-20321428D02*
X104671626Y-20249999D01*
X104671626Y-20249999D02*
X104957341Y-20178570D01*
X104957341Y-20178570D02*
X105314484Y-20178570D01*
X105314484Y-20178570D02*
X105600198Y-20249999D01*
X105600198Y-20249999D02*
X105743055Y-20321428D01*
X105743055Y-20321428D02*
X105814484Y-20392856D01*
X105814484Y-20392856D02*
X105885912Y-20535713D01*
X105885912Y-20535713D02*
X105885912Y-20678570D01*
X105885912Y-20678570D02*
X105814484Y-20821428D01*
X105814484Y-20821428D02*
X105743055Y-20892856D01*
X105743055Y-20892856D02*
X105600198Y-20964285D01*
X105600198Y-20964285D02*
X105314484Y-21035713D01*
X105314484Y-21035713D02*
X104957341Y-21035713D01*
X104957341Y-21035713D02*
X104671626Y-20964285D01*
X104671626Y-20964285D02*
X104528769Y-20892856D01*
X104528769Y-20892856D02*
X104457341Y-20821428D01*
X104457341Y-20821428D02*
X104385912Y-20678570D01*
X104528769Y-19607142D02*
X104457341Y-19535714D01*
X104457341Y-19535714D02*
X104385912Y-19392857D01*
X104385912Y-19392857D02*
X104385912Y-19035714D01*
X104385912Y-19035714D02*
X104457341Y-18892857D01*
X104457341Y-18892857D02*
X104528769Y-18821428D01*
X104528769Y-18821428D02*
X104671626Y-18749999D01*
X104671626Y-18749999D02*
X104814484Y-18749999D01*
X104814484Y-18749999D02*
X105028769Y-18821428D01*
X105028769Y-18821428D02*
X105885912Y-19678571D01*
X105885912Y-19678571D02*
X105885912Y-18749999D01*
X104385912Y-17392857D02*
X104385912Y-18107143D01*
X104385912Y-18107143D02*
X105100198Y-18178571D01*
X105100198Y-18178571D02*
X105028769Y-18107143D01*
X105028769Y-18107143D02*
X104957341Y-17964286D01*
X104957341Y-17964286D02*
X104957341Y-17607143D01*
X104957341Y-17607143D02*
X105028769Y-17464286D01*
X105028769Y-17464286D02*
X105100198Y-17392857D01*
X105100198Y-17392857D02*
X105243055Y-17321428D01*
X105243055Y-17321428D02*
X105600198Y-17321428D01*
X105600198Y-17321428D02*
X105743055Y-17392857D01*
X105743055Y-17392857D02*
X105814484Y-17464286D01*
X105814484Y-17464286D02*
X105885912Y-17607143D01*
X105885912Y-17607143D02*
X105885912Y-17964286D01*
X105885912Y-17964286D02*
X105814484Y-18107143D01*
X105814484Y-18107143D02*
X105743055Y-18178571D01*
X106457341Y-16821429D02*
X106385912Y-16750000D01*
X106385912Y-16750000D02*
X106171626Y-16607143D01*
X106171626Y-16607143D02*
X106028769Y-16535715D01*
X106028769Y-16535715D02*
X105814484Y-16464286D01*
X105814484Y-16464286D02*
X105457341Y-16392857D01*
X105457341Y-16392857D02*
X105171626Y-16392857D01*
X105171626Y-16392857D02*
X104814484Y-16464286D01*
X104814484Y-16464286D02*
X104600198Y-16535715D01*
X104600198Y-16535715D02*
X104457341Y-16607143D01*
X104457341Y-16607143D02*
X104243055Y-16750000D01*
X104243055Y-16750000D02*
X104171626Y-16821429D01*
X108300828Y-64678573D02*
X106800828Y-64678573D01*
X108300828Y-64035716D02*
X107515114Y-64035716D01*
X107515114Y-64035716D02*
X107372257Y-64107144D01*
X107372257Y-64107144D02*
X107300828Y-64250001D01*
X107300828Y-64250001D02*
X107300828Y-64464287D01*
X107300828Y-64464287D02*
X107372257Y-64607144D01*
X107372257Y-64607144D02*
X107443685Y-64678573D01*
X107300828Y-63535715D02*
X107300828Y-62964287D01*
X106800828Y-63321430D02*
X108086542Y-63321430D01*
X108086542Y-63321430D02*
X108229400Y-63250001D01*
X108229400Y-63250001D02*
X108300828Y-63107144D01*
X108300828Y-63107144D02*
X108300828Y-62964287D01*
X107300828Y-62678572D02*
X107300828Y-62107144D01*
X106800828Y-62464287D02*
X108086542Y-62464287D01*
X108086542Y-62464287D02*
X108229400Y-62392858D01*
X108229400Y-62392858D02*
X108300828Y-62250001D01*
X108300828Y-62250001D02*
X108300828Y-62107144D01*
X107300828Y-61607144D02*
X108800828Y-61607144D01*
X107372257Y-61607144D02*
X107300828Y-61464287D01*
X107300828Y-61464287D02*
X107300828Y-61178572D01*
X107300828Y-61178572D02*
X107372257Y-61035715D01*
X107372257Y-61035715D02*
X107443685Y-60964287D01*
X107443685Y-60964287D02*
X107586542Y-60892858D01*
X107586542Y-60892858D02*
X108015114Y-60892858D01*
X108015114Y-60892858D02*
X108157971Y-60964287D01*
X108157971Y-60964287D02*
X108229400Y-61035715D01*
X108229400Y-61035715D02*
X108300828Y-61178572D01*
X108300828Y-61178572D02*
X108300828Y-61464287D01*
X108300828Y-61464287D02*
X108229400Y-61607144D01*
X108229400Y-60321429D02*
X108300828Y-60178572D01*
X108300828Y-60178572D02*
X108300828Y-59892858D01*
X108300828Y-59892858D02*
X108229400Y-59750001D01*
X108229400Y-59750001D02*
X108086542Y-59678572D01*
X108086542Y-59678572D02*
X108015114Y-59678572D01*
X108015114Y-59678572D02*
X107872257Y-59750001D01*
X107872257Y-59750001D02*
X107800828Y-59892858D01*
X107800828Y-59892858D02*
X107800828Y-60107144D01*
X107800828Y-60107144D02*
X107729400Y-60250001D01*
X107729400Y-60250001D02*
X107586542Y-60321429D01*
X107586542Y-60321429D02*
X107515114Y-60321429D01*
X107515114Y-60321429D02*
X107372257Y-60250001D01*
X107372257Y-60250001D02*
X107300828Y-60107144D01*
X107300828Y-60107144D02*
X107300828Y-59892858D01*
X107300828Y-59892858D02*
X107372257Y-59750001D01*
X108157971Y-59035715D02*
X108229400Y-58964286D01*
X108229400Y-58964286D02*
X108300828Y-59035715D01*
X108300828Y-59035715D02*
X108229400Y-59107143D01*
X108229400Y-59107143D02*
X108157971Y-59035715D01*
X108157971Y-59035715D02*
X108300828Y-59035715D01*
X107372257Y-59035715D02*
X107443685Y-58964286D01*
X107443685Y-58964286D02*
X107515114Y-59035715D01*
X107515114Y-59035715D02*
X107443685Y-59107143D01*
X107443685Y-59107143D02*
X107372257Y-59035715D01*
X107372257Y-59035715D02*
X107515114Y-59035715D01*
X106729400Y-57250000D02*
X108657971Y-58535714D01*
X106729400Y-55678571D02*
X108657971Y-56964285D01*
X107300828Y-55321428D02*
X108300828Y-55035714D01*
X108300828Y-55035714D02*
X107586542Y-54749999D01*
X107586542Y-54749999D02*
X108300828Y-54464285D01*
X108300828Y-54464285D02*
X107300828Y-54178571D01*
X108300828Y-53392856D02*
X108229400Y-53535713D01*
X108229400Y-53535713D02*
X108157971Y-53607142D01*
X108157971Y-53607142D02*
X108015114Y-53678570D01*
X108015114Y-53678570D02*
X107586542Y-53678570D01*
X107586542Y-53678570D02*
X107443685Y-53607142D01*
X107443685Y-53607142D02*
X107372257Y-53535713D01*
X107372257Y-53535713D02*
X107300828Y-53392856D01*
X107300828Y-53392856D02*
X107300828Y-53178570D01*
X107300828Y-53178570D02*
X107372257Y-53035713D01*
X107372257Y-53035713D02*
X107443685Y-52964285D01*
X107443685Y-52964285D02*
X107586542Y-52892856D01*
X107586542Y-52892856D02*
X108015114Y-52892856D01*
X108015114Y-52892856D02*
X108157971Y-52964285D01*
X108157971Y-52964285D02*
X108229400Y-53035713D01*
X108229400Y-53035713D02*
X108300828Y-53178570D01*
X108300828Y-53178570D02*
X108300828Y-53392856D01*
X108300828Y-52249999D02*
X107300828Y-52249999D01*
X107586542Y-52249999D02*
X107443685Y-52178570D01*
X107443685Y-52178570D02*
X107372257Y-52107142D01*
X107372257Y-52107142D02*
X107300828Y-51964284D01*
X107300828Y-51964284D02*
X107300828Y-51821427D01*
X108300828Y-51107142D02*
X108229400Y-51249999D01*
X108229400Y-51249999D02*
X108086542Y-51321428D01*
X108086542Y-51321428D02*
X106800828Y-51321428D01*
X108300828Y-49892857D02*
X106800828Y-49892857D01*
X108229400Y-49892857D02*
X108300828Y-50035714D01*
X108300828Y-50035714D02*
X108300828Y-50321428D01*
X108300828Y-50321428D02*
X108229400Y-50464285D01*
X108229400Y-50464285D02*
X108157971Y-50535714D01*
X108157971Y-50535714D02*
X108015114Y-50607142D01*
X108015114Y-50607142D02*
X107586542Y-50607142D01*
X107586542Y-50607142D02*
X107443685Y-50535714D01*
X107443685Y-50535714D02*
X107372257Y-50464285D01*
X107372257Y-50464285D02*
X107300828Y-50321428D01*
X107300828Y-50321428D02*
X107300828Y-50035714D01*
X107300828Y-50035714D02*
X107372257Y-49892857D01*
X108300828Y-49178571D02*
X106800828Y-49178571D01*
X107372257Y-49178571D02*
X107300828Y-49035714D01*
X107300828Y-49035714D02*
X107300828Y-48749999D01*
X107300828Y-48749999D02*
X107372257Y-48607142D01*
X107372257Y-48607142D02*
X107443685Y-48535714D01*
X107443685Y-48535714D02*
X107586542Y-48464285D01*
X107586542Y-48464285D02*
X108015114Y-48464285D01*
X108015114Y-48464285D02*
X108157971Y-48535714D01*
X108157971Y-48535714D02*
X108229400Y-48607142D01*
X108229400Y-48607142D02*
X108300828Y-48749999D01*
X108300828Y-48749999D02*
X108300828Y-49035714D01*
X108300828Y-49035714D02*
X108229400Y-49178571D01*
X108300828Y-47821428D02*
X107300828Y-47821428D01*
X107586542Y-47821428D02*
X107443685Y-47749999D01*
X107443685Y-47749999D02*
X107372257Y-47678571D01*
X107372257Y-47678571D02*
X107300828Y-47535713D01*
X107300828Y-47535713D02*
X107300828Y-47392856D01*
X108300828Y-46892857D02*
X107300828Y-46892857D01*
X106800828Y-46892857D02*
X106872257Y-46964285D01*
X106872257Y-46964285D02*
X106943685Y-46892857D01*
X106943685Y-46892857D02*
X106872257Y-46821428D01*
X106872257Y-46821428D02*
X106800828Y-46892857D01*
X106800828Y-46892857D02*
X106943685Y-46892857D01*
X107300828Y-45535714D02*
X108515114Y-45535714D01*
X108515114Y-45535714D02*
X108657971Y-45607142D01*
X108657971Y-45607142D02*
X108729400Y-45678571D01*
X108729400Y-45678571D02*
X108800828Y-45821428D01*
X108800828Y-45821428D02*
X108800828Y-46035714D01*
X108800828Y-46035714D02*
X108729400Y-46178571D01*
X108229400Y-45535714D02*
X108300828Y-45678571D01*
X108300828Y-45678571D02*
X108300828Y-45964285D01*
X108300828Y-45964285D02*
X108229400Y-46107142D01*
X108229400Y-46107142D02*
X108157971Y-46178571D01*
X108157971Y-46178571D02*
X108015114Y-46249999D01*
X108015114Y-46249999D02*
X107586542Y-46249999D01*
X107586542Y-46249999D02*
X107443685Y-46178571D01*
X107443685Y-46178571D02*
X107372257Y-46107142D01*
X107372257Y-46107142D02*
X107300828Y-45964285D01*
X107300828Y-45964285D02*
X107300828Y-45678571D01*
X107300828Y-45678571D02*
X107372257Y-45535714D01*
X108300828Y-44821428D02*
X106800828Y-44821428D01*
X108300828Y-44178571D02*
X107515114Y-44178571D01*
X107515114Y-44178571D02*
X107372257Y-44249999D01*
X107372257Y-44249999D02*
X107300828Y-44392856D01*
X107300828Y-44392856D02*
X107300828Y-44607142D01*
X107300828Y-44607142D02*
X107372257Y-44749999D01*
X107372257Y-44749999D02*
X107443685Y-44821428D01*
X107300828Y-43678570D02*
X107300828Y-43107142D01*
X106800828Y-43464285D02*
X108086542Y-43464285D01*
X108086542Y-43464285D02*
X108229400Y-43392856D01*
X108229400Y-43392856D02*
X108300828Y-43249999D01*
X108300828Y-43249999D02*
X108300828Y-43107142D01*
X108229400Y-42035713D02*
X108300828Y-42178570D01*
X108300828Y-42178570D02*
X108300828Y-42464285D01*
X108300828Y-42464285D02*
X108229400Y-42607142D01*
X108229400Y-42607142D02*
X108086542Y-42678570D01*
X108086542Y-42678570D02*
X107515114Y-42678570D01*
X107515114Y-42678570D02*
X107372257Y-42607142D01*
X107372257Y-42607142D02*
X107300828Y-42464285D01*
X107300828Y-42464285D02*
X107300828Y-42178570D01*
X107300828Y-42178570D02*
X107372257Y-42035713D01*
X107372257Y-42035713D02*
X107515114Y-41964285D01*
X107515114Y-41964285D02*
X107657971Y-41964285D01*
X107657971Y-41964285D02*
X107800828Y-42678570D01*
X107300828Y-41321428D02*
X108300828Y-41321428D01*
X107443685Y-41321428D02*
X107372257Y-41249999D01*
X107372257Y-41249999D02*
X107300828Y-41107142D01*
X107300828Y-41107142D02*
X107300828Y-40892856D01*
X107300828Y-40892856D02*
X107372257Y-40749999D01*
X107372257Y-40749999D02*
X107515114Y-40678571D01*
X107515114Y-40678571D02*
X108300828Y-40678571D01*
X108300828Y-39964285D02*
X107300828Y-39964285D01*
X106800828Y-39964285D02*
X106872257Y-40035713D01*
X106872257Y-40035713D02*
X106943685Y-39964285D01*
X106943685Y-39964285D02*
X106872257Y-39892856D01*
X106872257Y-39892856D02*
X106800828Y-39964285D01*
X106800828Y-39964285D02*
X106943685Y-39964285D01*
X107300828Y-39249999D02*
X108300828Y-39249999D01*
X107443685Y-39249999D02*
X107372257Y-39178570D01*
X107372257Y-39178570D02*
X107300828Y-39035713D01*
X107300828Y-39035713D02*
X107300828Y-38821427D01*
X107300828Y-38821427D02*
X107372257Y-38678570D01*
X107372257Y-38678570D02*
X107515114Y-38607142D01*
X107515114Y-38607142D02*
X108300828Y-38607142D01*
X107300828Y-37249999D02*
X108515114Y-37249999D01*
X108515114Y-37249999D02*
X108657971Y-37321427D01*
X108657971Y-37321427D02*
X108729400Y-37392856D01*
X108729400Y-37392856D02*
X108800828Y-37535713D01*
X108800828Y-37535713D02*
X108800828Y-37749999D01*
X108800828Y-37749999D02*
X108729400Y-37892856D01*
X108229400Y-37249999D02*
X108300828Y-37392856D01*
X108300828Y-37392856D02*
X108300828Y-37678570D01*
X108300828Y-37678570D02*
X108229400Y-37821427D01*
X108229400Y-37821427D02*
X108157971Y-37892856D01*
X108157971Y-37892856D02*
X108015114Y-37964284D01*
X108015114Y-37964284D02*
X107586542Y-37964284D01*
X107586542Y-37964284D02*
X107443685Y-37892856D01*
X107443685Y-37892856D02*
X107372257Y-37821427D01*
X107372257Y-37821427D02*
X107300828Y-37678570D01*
X107300828Y-37678570D02*
X107300828Y-37392856D01*
X107300828Y-37392856D02*
X107372257Y-37249999D01*
X108157971Y-36535713D02*
X108229400Y-36464284D01*
X108229400Y-36464284D02*
X108300828Y-36535713D01*
X108300828Y-36535713D02*
X108229400Y-36607141D01*
X108229400Y-36607141D02*
X108157971Y-36535713D01*
X108157971Y-36535713D02*
X108300828Y-36535713D01*
X107300828Y-35821427D02*
X108300828Y-35821427D01*
X107443685Y-35821427D02*
X107372257Y-35749998D01*
X107372257Y-35749998D02*
X107300828Y-35607141D01*
X107300828Y-35607141D02*
X107300828Y-35392855D01*
X107300828Y-35392855D02*
X107372257Y-35249998D01*
X107372257Y-35249998D02*
X107515114Y-35178570D01*
X107515114Y-35178570D02*
X108300828Y-35178570D01*
X108229400Y-33892855D02*
X108300828Y-34035712D01*
X108300828Y-34035712D02*
X108300828Y-34321427D01*
X108300828Y-34321427D02*
X108229400Y-34464284D01*
X108229400Y-34464284D02*
X108086542Y-34535712D01*
X108086542Y-34535712D02*
X107515114Y-34535712D01*
X107515114Y-34535712D02*
X107372257Y-34464284D01*
X107372257Y-34464284D02*
X107300828Y-34321427D01*
X107300828Y-34321427D02*
X107300828Y-34035712D01*
X107300828Y-34035712D02*
X107372257Y-33892855D01*
X107372257Y-33892855D02*
X107515114Y-33821427D01*
X107515114Y-33821427D02*
X107657971Y-33821427D01*
X107657971Y-33821427D02*
X107800828Y-34535712D01*
X107300828Y-33392855D02*
X107300828Y-32821427D01*
X106800828Y-33178570D02*
X108086542Y-33178570D01*
X108086542Y-33178570D02*
X108229400Y-33107141D01*
X108229400Y-33107141D02*
X108300828Y-32964284D01*
X108300828Y-32964284D02*
X108300828Y-32821427D01*
X106729400Y-31249998D02*
X108657971Y-32535712D01*
X108300828Y-30749998D02*
X106800828Y-30749998D01*
X107372257Y-30749998D02*
X107300828Y-30607141D01*
X107300828Y-30607141D02*
X107300828Y-30321426D01*
X107300828Y-30321426D02*
X107372257Y-30178569D01*
X107372257Y-30178569D02*
X107443685Y-30107141D01*
X107443685Y-30107141D02*
X107586542Y-30035712D01*
X107586542Y-30035712D02*
X108015114Y-30035712D01*
X108015114Y-30035712D02*
X108157971Y-30107141D01*
X108157971Y-30107141D02*
X108229400Y-30178569D01*
X108229400Y-30178569D02*
X108300828Y-30321426D01*
X108300828Y-30321426D02*
X108300828Y-30607141D01*
X108300828Y-30607141D02*
X108229400Y-30749998D01*
X107300828Y-28749998D02*
X108300828Y-28749998D01*
X107300828Y-29392855D02*
X108086542Y-29392855D01*
X108086542Y-29392855D02*
X108229400Y-29321426D01*
X108229400Y-29321426D02*
X108300828Y-29178569D01*
X108300828Y-29178569D02*
X108300828Y-28964283D01*
X108300828Y-28964283D02*
X108229400Y-28821426D01*
X108229400Y-28821426D02*
X108157971Y-28749998D01*
X107300828Y-28178569D02*
X107300828Y-27392855D01*
X107300828Y-27392855D02*
X108300828Y-28178569D01*
X108300828Y-28178569D02*
X108300828Y-27392855D01*
X107300828Y-26964283D02*
X107300828Y-26178569D01*
X107300828Y-26178569D02*
X108300828Y-26964283D01*
X108300828Y-26964283D02*
X108300828Y-26178569D01*
X108229400Y-25035711D02*
X108300828Y-25178568D01*
X108300828Y-25178568D02*
X108300828Y-25464283D01*
X108300828Y-25464283D02*
X108229400Y-25607140D01*
X108229400Y-25607140D02*
X108086542Y-25678568D01*
X108086542Y-25678568D02*
X107515114Y-25678568D01*
X107515114Y-25678568D02*
X107372257Y-25607140D01*
X107372257Y-25607140D02*
X107300828Y-25464283D01*
X107300828Y-25464283D02*
X107300828Y-25178568D01*
X107300828Y-25178568D02*
X107372257Y-25035711D01*
X107372257Y-25035711D02*
X107515114Y-24964283D01*
X107515114Y-24964283D02*
X107657971Y-24964283D01*
X107657971Y-24964283D02*
X107800828Y-25678568D01*
X108300828Y-24321426D02*
X107300828Y-24321426D01*
X107586542Y-24321426D02*
X107443685Y-24249997D01*
X107443685Y-24249997D02*
X107372257Y-24178569D01*
X107372257Y-24178569D02*
X107300828Y-24035711D01*
X107300828Y-24035711D02*
X107300828Y-23892854D01*
X108229400Y-23464283D02*
X108300828Y-23321426D01*
X108300828Y-23321426D02*
X108300828Y-23035712D01*
X108300828Y-23035712D02*
X108229400Y-22892855D01*
X108229400Y-22892855D02*
X108086542Y-22821426D01*
X108086542Y-22821426D02*
X108015114Y-22821426D01*
X108015114Y-22821426D02*
X107872257Y-22892855D01*
X107872257Y-22892855D02*
X107800828Y-23035712D01*
X107800828Y-23035712D02*
X107800828Y-23249998D01*
X107800828Y-23249998D02*
X107729400Y-23392855D01*
X107729400Y-23392855D02*
X107586542Y-23464283D01*
X107586542Y-23464283D02*
X107515114Y-23464283D01*
X107515114Y-23464283D02*
X107372257Y-23392855D01*
X107372257Y-23392855D02*
X107300828Y-23249998D01*
X107300828Y-23249998D02*
X107300828Y-23035712D01*
X107300828Y-23035712D02*
X107372257Y-22892855D01*
X106729400Y-21107140D02*
X108657971Y-22392854D01*
D12*
%TA.AperFunction,EtchedComponent*%
%TO.C,JP1*%
G36*
X81900000Y-79800000D02*
G01*
X81400000Y-79800000D01*
X81400000Y-79200000D01*
X81900000Y-79200000D01*
X81900000Y-79800000D01*
G37*
%TD.AperFunction*%
%TA.AperFunction,EtchedComponent*%
%TO.C,JP2*%
G36*
X90400000Y-79800000D02*
G01*
X89900000Y-79800000D01*
X89900000Y-79200000D01*
X90400000Y-79200000D01*
X90400000Y-79800000D01*
G37*
%TD.AperFunction*%
%TD*%
D13*
%TO.P,R2,1*%
%TO.N,Net-(J2-Pad4)*%
X47620000Y-64500000D03*
%TO.P,R2,2*%
%TO.N,Net-(A1-GPIO2)*%
X32380000Y-64500000D03*
%TD*%
D14*
%TO.P,U1,1,+*%
%TO.N,Net-(A1-GPIO14)*%
X72585000Y-45380000D03*
D15*
%TO.P,U1,2,-*%
%TO.N,GND*%
X72585000Y-49190000D03*
%TO.P,U1,3,V-*%
%TO.N,unconnected-(U1-V--Pad3)*%
X72585000Y-53000000D03*
%TO.P,U1,4*%
%TO.N,Net-(A1-3V3)*%
X72585000Y-56810000D03*
%TO.P,U1,5,V+*%
%TO.N,GND*%
X72585000Y-60620000D03*
%TD*%
D16*
%TO.P,J8,1*%
%TO.N,GND*%
X41980000Y-28890000D03*
D17*
%TO.P,J8,2*%
%TO.N,Net-(A1-3V3)*%
X43250000Y-26350000D03*
%TO.P,J8,3*%
%TO.N,Net-(A1-GPIO20)*%
X44520000Y-28890000D03*
%TO.P,J8,4*%
%TO.N,Net-(J8-Pad4)*%
X45790000Y-26350000D03*
%TD*%
D13*
%TO.P,R10,1*%
%TO.N,Net-(J10-Pad4)*%
X28620000Y-34500000D03*
%TO.P,R10,2*%
%TO.N,Net-(A1-GPIO17)*%
X13380000Y-34500000D03*
%TD*%
D18*
%TO.P,C1,1*%
%TO.N,Net-(A1-3V3)*%
X80000000Y-73000000D03*
%TO.P,C1,2*%
%TO.N,GND*%
X85000000Y-73000000D03*
%TD*%
D19*
%TO.P,Status2,1,K*%
%TO.N,GND*%
X98960000Y-87000000D03*
D17*
%TO.P,Status2,2,A*%
%TO.N,Net-(A1-GPIO12)*%
X101500000Y-87000000D03*
%TD*%
D13*
%TO.P,Clear1,1,A*%
%TO.N,Net-(A1-GPIO9)*%
X94500000Y-21000000D03*
%TO.P,Clear1,2,B*%
%TO.N,Net-(A1-3V3)*%
X94500000Y-15700000D03*
%TD*%
D20*
%TO.P,JP1,1,A*%
%TO.N,Net-(A1-VSYS)*%
X82300000Y-79500000D03*
%TO.P,JP1,2,B*%
%TO.N,Net-(A1-VBUS)*%
X81000000Y-79500000D03*
%TD*%
D13*
%TO.P,R8,1*%
%TO.N,Net-(J8-Pad4)*%
X50380000Y-34500000D03*
%TO.P,R8,2*%
%TO.N,Net-(A1-GPIO21)*%
X65620000Y-34500000D03*
%TD*%
D16*
%TO.P,J6,1*%
%TO.N,GND*%
X68280000Y-28890000D03*
D17*
%TO.P,J6,2*%
%TO.N,Net-(A1-3V3)*%
X69550000Y-26350000D03*
%TO.P,J6,3*%
%TO.N,Net-(A1-GPIO27_ADC1)*%
X70820000Y-28890000D03*
%TO.P,J6,4*%
%TO.N,Net-(J6-Pad4)*%
X72090000Y-26350000D03*
%TD*%
D21*
%TO.P,J4,1*%
%TO.N,GND*%
X59870000Y-74610000D03*
D17*
%TO.P,J4,2*%
%TO.N,Net-(A1-3V3)*%
X58600000Y-77150000D03*
%TO.P,J4,3*%
%TO.N,Net-(A1-GPIO8)*%
X57330000Y-74610000D03*
%TO.P,J4,4*%
%TO.N,Net-(J4-Pad4)*%
X56060000Y-77150000D03*
%TD*%
D16*
%TO.P,J7,1*%
%TO.N,GND*%
X55130000Y-28890000D03*
D17*
%TO.P,J7,2*%
%TO.N,Net-(A1-3V3)*%
X56400000Y-26350000D03*
%TO.P,J7,3*%
%TO.N,Net-(A1-GPIO22)*%
X57670000Y-28890000D03*
%TO.P,J7,4*%
%TO.N,Net-(J7-Pad4)*%
X58940000Y-26350000D03*
%TD*%
D20*
%TO.P,JP2,1,A*%
%TO.N,GND*%
X89500000Y-79500000D03*
%TO.P,JP2,2,B*%
%TO.N,Net-(A1-AGND)*%
X90800000Y-79500000D03*
%TD*%
D18*
%TO.P,C3,1*%
%TO.N,Net-(A1-3V3)*%
X102000000Y-73000000D03*
%TO.P,C3,2*%
%TO.N,GND*%
X107000000Y-73000000D03*
%TD*%
D19*
%TO.P,ModBuzzLED1,1,K*%
%TO.N,GND*%
X80725000Y-87000000D03*
D17*
%TO.P,ModBuzzLED1,2,A*%
%TO.N,Net-(A1-GPIO14)*%
X83265000Y-87000000D03*
%TD*%
D21*
%TO.P,J5,1*%
%TO.N,GND*%
X73020000Y-74610000D03*
D17*
%TO.P,J5,2*%
%TO.N,Net-(A1-3V3)*%
X71750000Y-77150000D03*
%TO.P,J5,3*%
%TO.N,Net-(A1-GPIO10)*%
X70480000Y-74610000D03*
%TO.P,J5,4*%
%TO.N,Net-(J5-Pad4)*%
X69210000Y-77150000D03*
%TD*%
D13*
%TO.P,R3,1*%
%TO.N,Net-(J3-Pad4)*%
X66120000Y-64500000D03*
%TO.P,R3,2*%
%TO.N,Net-(A1-GPIO5)*%
X50880000Y-64500000D03*
%TD*%
%TO.P,R6,1*%
%TO.N,Net-(J6-Pad4)*%
X84000000Y-34500000D03*
%TO.P,R6,2*%
%TO.N,Net-(A1-GPIO28_ADC2)*%
X68760000Y-34500000D03*
%TD*%
%TO.P,R7,1*%
%TO.N,Net-(J7-Pad4)*%
X31880000Y-34500000D03*
%TO.P,R7,2*%
%TO.N,Net-(A1-GPIO26_ADC0)*%
X47120000Y-34500000D03*
%TD*%
D16*
%TO.P,J9,1*%
%TO.N,GND*%
X28830000Y-28890000D03*
D17*
%TO.P,J9,2*%
%TO.N,Net-(A1-3V3)*%
X30100000Y-26350000D03*
%TO.P,J9,3*%
%TO.N,Net-(A1-GPIO18)*%
X31370000Y-28890000D03*
%TO.P,J9,4*%
%TO.N,Net-(J9-Pad4)*%
X32640000Y-26350000D03*
%TD*%
D13*
%TO.P,ModBuzz1,1,A*%
%TO.N,Net-(A1-GPIO13)*%
X87750000Y-28850000D03*
%TO.P,ModBuzz1,2,B*%
%TO.N,Net-(A1-3V3)*%
X87750000Y-34150000D03*
%TD*%
D21*
%TO.P,J3,1*%
%TO.N,GND*%
X46720000Y-74610000D03*
D17*
%TO.P,J3,2*%
%TO.N,Net-(A1-3V3)*%
X45450000Y-77150000D03*
%TO.P,J3,3*%
%TO.N,Net-(A1-GPIO4)*%
X44180000Y-74610000D03*
%TO.P,J3,4*%
%TO.N,Net-(J3-Pad4)*%
X42910000Y-77150000D03*
%TD*%
D19*
%TO.P,Status1,1,K*%
%TO.N,GND*%
X89960000Y-87000000D03*
D17*
%TO.P,Status1,2,A*%
%TO.N,Net-(A1-GPIO6)*%
X92500000Y-87000000D03*
%TD*%
D21*
%TO.P,J2,1*%
%TO.N,GND*%
X33570000Y-74610000D03*
D17*
%TO.P,J2,2*%
%TO.N,Net-(A1-3V3)*%
X32300000Y-77150000D03*
%TO.P,J2,3*%
%TO.N,Net-(A1-GPIO3)*%
X31030000Y-74610000D03*
%TO.P,J2,4*%
%TO.N,Net-(J2-Pad4)*%
X29760000Y-77150000D03*
%TD*%
D13*
%TO.P,R4,1*%
%TO.N,Net-(J4-Pad4)*%
X13880000Y-70000000D03*
%TO.P,R4,2*%
%TO.N,Net-(A1-GPIO7)*%
X29120000Y-70000000D03*
%TD*%
D21*
%TO.P,J1,1*%
%TO.N,GND*%
X20420000Y-74610000D03*
D17*
%TO.P,J1,2*%
%TO.N,Net-(A1-3V3)*%
X19150000Y-77150000D03*
%TO.P,J1,3*%
%TO.N,Net-(A1-GPIO0)*%
X17880000Y-74610000D03*
%TO.P,J1,4*%
%TO.N,Net-(J1-Pad4)*%
X16610000Y-77150000D03*
%TD*%
D13*
%TO.P,R1,1*%
%TO.N,Net-(J1-Pad4)*%
X29120000Y-64500000D03*
%TO.P,R1,2*%
%TO.N,Net-(A1-GPIO1)*%
X13880000Y-64500000D03*
%TD*%
D18*
%TO.P,C2,1*%
%TO.N,Net-(A1-3V3)*%
X91000000Y-73000000D03*
%TO.P,C2,2*%
%TO.N,GND*%
X96000000Y-73000000D03*
%TD*%
D16*
%TO.P,J10,1*%
%TO.N,GND*%
X15680000Y-28890000D03*
D17*
%TO.P,J10,2*%
%TO.N,Net-(A1-3V3)*%
X16950000Y-26350000D03*
%TO.P,J10,3*%
%TO.N,Net-(A1-GPIO16)*%
X18220000Y-28890000D03*
%TO.P,J10,4*%
%TO.N,Net-(J10-Pad4)*%
X19490000Y-26350000D03*
%TD*%
D13*
%TO.P,R5,1*%
%TO.N,Net-(J5-Pad4)*%
X47620000Y-70000000D03*
%TO.P,R5,2*%
%TO.N,Net-(A1-GPIO11)*%
X32380000Y-70000000D03*
%TD*%
D22*
%TO.P,A1,1,GPIO0*%
%TO.N,Net-(A1-GPIO0)*%
X13980000Y-58280000D03*
D23*
%TO.P,A1,2,GPIO1*%
%TO.N,Net-(A1-GPIO1)*%
X16520000Y-58280000D03*
D24*
%TO.P,A1,3,GND*%
%TO.N,GND*%
X19060000Y-58280000D03*
D23*
%TO.P,A1,4,GPIO2*%
%TO.N,Net-(A1-GPIO2)*%
X21600000Y-58280000D03*
%TO.P,A1,5,GPIO3*%
%TO.N,Net-(A1-GPIO3)*%
X24140000Y-58280000D03*
%TO.P,A1,6,GPIO4*%
%TO.N,Net-(A1-GPIO4)*%
X26680000Y-58280000D03*
%TO.P,A1,7,GPIO5*%
%TO.N,Net-(A1-GPIO5)*%
X29220000Y-58280000D03*
D24*
%TO.P,A1,8,GND*%
%TO.N,GND*%
X31760000Y-58280000D03*
D23*
%TO.P,A1,9,GPIO6*%
%TO.N,Net-(A1-GPIO6)*%
X34300000Y-58280000D03*
%TO.P,A1,10,GPIO7*%
%TO.N,Net-(A1-GPIO7)*%
X36840000Y-58280000D03*
%TO.P,A1,11,GPIO8*%
%TO.N,Net-(A1-GPIO8)*%
X39380000Y-58280000D03*
%TO.P,A1,12,GPIO9*%
%TO.N,Net-(A1-GPIO9)*%
X41920000Y-58280000D03*
D24*
%TO.P,A1,13,GND*%
%TO.N,GND*%
X44460000Y-58280000D03*
D23*
%TO.P,A1,14,GPIO10*%
%TO.N,Net-(A1-GPIO10)*%
X47000000Y-58280000D03*
%TO.P,A1,15,GPIO11*%
%TO.N,Net-(A1-GPIO11)*%
X49540000Y-58280000D03*
%TO.P,A1,16,GPIO12*%
%TO.N,Net-(A1-GPIO12)*%
X52080000Y-58280000D03*
%TO.P,A1,17,GPIO13*%
%TO.N,Net-(A1-GPIO13)*%
X54620000Y-58280000D03*
D24*
%TO.P,A1,18,GND*%
%TO.N,GND*%
X57160000Y-58280000D03*
D23*
%TO.P,A1,19,GPIO14*%
%TO.N,Net-(A1-GPIO14)*%
X59700000Y-58280000D03*
%TO.P,A1,20,GPIO15*%
X62240000Y-58280000D03*
%TO.P,A1,21,GPIO16*%
%TO.N,Net-(A1-GPIO16)*%
X62240000Y-40500000D03*
%TO.P,A1,22,GPIO17*%
%TO.N,Net-(A1-GPIO17)*%
X59700000Y-40500000D03*
D25*
%TO.P,A1,23,GND*%
%TO.N,GND*%
X57160000Y-40500000D03*
D23*
%TO.P,A1,24,GPIO18*%
%TO.N,Net-(A1-GPIO18)*%
X54620000Y-40500000D03*
%TO.P,A1,25,GPIO19*%
%TO.N,Net-(A1-GPIO19)*%
X52080000Y-40500000D03*
%TO.P,A1,26,GPIO20*%
%TO.N,Net-(A1-GPIO20)*%
X49540000Y-40500000D03*
%TO.P,A1,27,GPIO21*%
%TO.N,Net-(A1-GPIO21)*%
X47000000Y-40500000D03*
D25*
%TO.P,A1,28,GND*%
%TO.N,GND*%
X44460000Y-40500000D03*
D23*
%TO.P,A1,29,GPIO22*%
%TO.N,Net-(A1-GPIO22)*%
X41920000Y-40500000D03*
%TO.P,A1,30,RUN*%
%TO.N,unconnected-(A1-RUN-Pad30)*%
X39380000Y-40500000D03*
%TO.P,A1,31,GPIO26_ADC0*%
%TO.N,Net-(A1-GPIO26_ADC0)*%
X36840000Y-40500000D03*
%TO.P,A1,32,GPIO27_ADC1*%
%TO.N,Net-(A1-GPIO27_ADC1)*%
X34300000Y-40500000D03*
D25*
%TO.P,A1,33,AGND*%
%TO.N,Net-(A1-AGND)*%
X31760000Y-40500000D03*
D23*
%TO.P,A1,34,GPIO28_ADC2*%
%TO.N,Net-(A1-GPIO28_ADC2)*%
X29220000Y-40500000D03*
%TO.P,A1,35,ADC_VREF*%
%TO.N,unconnected-(A1-ADC_VREF-Pad35)*%
X26680000Y-40500000D03*
%TO.P,A1,36,3V3*%
%TO.N,Net-(A1-3V3)*%
X24140000Y-40500000D03*
%TO.P,A1,37,3V3_EN*%
%TO.N,unconnected-(A1-3V3_EN-Pad37)*%
X21600000Y-40500000D03*
D25*
%TO.P,A1,38,GND*%
%TO.N,GND*%
X19060000Y-40500000D03*
D23*
%TO.P,A1,39,VSYS*%
%TO.N,Net-(A1-VSYS)*%
X16520000Y-40500000D03*
%TO.P,A1,40,VBUS*%
%TO.N,Net-(A1-VBUS)*%
X13980000Y-40500000D03*
%TD*%
D13*
%TO.P,R9,1*%
%TO.N,Net-(J9-Pad4)*%
X50880000Y-70000000D03*
%TO.P,R9,2*%
%TO.N,Net-(A1-GPIO19)*%
X66120000Y-70000000D03*
%TD*%
D26*
%TO.N,GND*%
X88449200Y-79346300D03*
%TO.N,Net-(A1-GPIO18)*%
X48820300Y-30141000D03*
%TO.N,Net-(A1-GPIO12)*%
X101034200Y-66891500D03*
%TO.N,Net-(A1-GPIO16)*%
X59866000Y-30167100D03*
%TO.N,Net-(A1-GPIO8)*%
X53617400Y-61019800D03*
%TO.N,Net-(A1-GPIO18)*%
X51391400Y-37646100D03*
%TO.N,Net-(A1-GPIO6)*%
X86416900Y-60716500D03*
%TO.N,Net-(J7-Pad4)*%
X33381800Y-30784900D03*
%TO.N,Net-(A1-GPIO10)*%
X49126800Y-71226900D03*
%TO.N,Net-(A1-VSYS)*%
X27983700Y-79481300D03*
%TO.N,Net-(J1-Pad4)*%
X17284400Y-66694300D03*
%TO.N,Net-(A1-VBUS)*%
X27158900Y-78649900D03*
%TO.N,Net-(A1-AGND)*%
X39010500Y-77852700D03*
%TO.N,Net-(A1-3V3)*%
X66134600Y-77698200D03*
%TO.N,Net-(A1-GPIO4)*%
X41973400Y-60716500D03*
%TO.N,Net-(J2-Pad4)*%
X33327400Y-66937100D03*
%TO.N,Net-(J3-Pad4)*%
X67734000Y-76601900D03*
%TO.N,Net-(A1-GPIO13)*%
X84150200Y-57272800D03*
%TO.N,Net-(A1-GPIO9)*%
X32832000Y-24402600D03*
%TD*%
D27*
%TO.N,GND*%
X88449200Y-79346300D02*
X88544600Y-79346300D01*
X89500000Y-79500000D02*
X88698300Y-79500000D01*
%TO.N,Net-(A1-AGND)*%
X90800000Y-78448300D02*
X69310800Y-78448300D01*
%TO.N,Net-(A1-GPIO27_ADC1)*%
X68905200Y-30804800D02*
X70820000Y-28890000D01*
%TO.N,Net-(A1-GPIO6)*%
X53181700Y-58421700D02*
X53181700Y-57770000D01*
%TO.N,Net-(A1-GPIO10)*%
X70480000Y-74610000D02*
X67922800Y-72052800D01*
%TO.N,Net-(A1-GPIO18)*%
X51766100Y-37646100D02*
X51391400Y-37646100D01*
%TO.N,Net-(A1-3V3)*%
X89991900Y-71991900D02*
X81008100Y-71991900D01*
%TO.N,Net-(J5-Pad4)*%
X47620000Y-70573900D02*
X47620000Y-70000000D01*
%TO.N,Net-(A1-3V3)*%
X31335700Y-27585700D02*
X42014300Y-27585700D01*
%TO.N,Net-(A1-GPIO13)*%
X68764200Y-57145300D02*
X69981400Y-58362500D01*
%TO.N,Net-(A1-GPIO17)*%
X48403800Y-42042700D02*
X29139900Y-42042700D01*
%TO.N,Net-(A1-3V3)*%
X70888300Y-27688300D02*
X69550000Y-26350000D01*
%TO.N,Net-(A1-GPIO18)*%
X54620000Y-40500000D02*
X51766100Y-37646100D01*
%TO.N,Net-(A1-GPIO26_ADC0)*%
X47120000Y-34500000D02*
X42840000Y-34500000D01*
%TO.N,Net-(A1-3V3)*%
X16950000Y-26350000D02*
X18205100Y-27605100D01*
%TO.N,Net-(A1-GPIO17)*%
X29139900Y-42042700D02*
X27950000Y-40852800D01*
%TO.N,Net-(A1-3V3)*%
X28412100Y-78351700D02*
X31098300Y-78351700D01*
X91000000Y-73000000D02*
X92008100Y-71991900D01*
%TO.N,Net-(A1-GPIO11)*%
X52434800Y-61174800D02*
X49540000Y-58280000D01*
%TO.N,Net-(A1-GPIO17)*%
X58393500Y-41806500D02*
X48640000Y-41806500D01*
%TO.N,Net-(A1-3V3)*%
X92008100Y-71991900D02*
X100991900Y-71991900D01*
%TO.N,Net-(A1-GPIO28_ADC2)*%
X30326500Y-41606500D02*
X29220000Y-40500000D01*
%TO.N,Net-(A1-GPIO8)*%
X50978300Y-58094800D02*
X50978300Y-58762000D01*
%TO.N,Net-(A1-GPIO11)*%
X52434800Y-65131700D02*
X52434800Y-61174800D01*
%TO.N,Net-(A1-GPIO17)*%
X48640000Y-41806500D02*
X48403800Y-42042700D01*
%TO.N,Net-(A1-GPIO28_ADC2)*%
X48438300Y-39748400D02*
X48438300Y-40664000D01*
%TO.N,Net-(A1-GPIO17)*%
X27950000Y-40126300D02*
X22323700Y-34500000D01*
%TO.N,Net-(J5-Pad4)*%
X50453400Y-73407300D02*
X47620000Y-70573900D01*
X65467300Y-73407300D02*
X50453400Y-73407300D01*
%TO.N,Net-(A1-GPIO2)*%
X25759000Y-62439000D02*
X30319000Y-62439000D01*
%TO.N,Net-(A1-3V3)*%
X66134600Y-77698200D02*
X65586400Y-77150000D01*
%TO.N,Net-(A1-GPIO17)*%
X22323700Y-34500000D02*
X13380000Y-34500000D01*
%TO.N,Net-(A1-GPIO28_ADC2)*%
X51142300Y-37044400D02*
X48438300Y-39748400D01*
%TO.N,Net-(A1-GPIO27_ADC1)*%
X56680300Y-31135900D02*
X56846600Y-30969600D01*
%TO.N,Net-(A1-GPIO18)*%
X31370000Y-28890000D02*
X32621000Y-30141000D01*
%TO.N,Net-(A1-3V3)*%
X42014300Y-27585700D02*
X43250000Y-26350000D01*
%TO.N,Net-(A1-GPIO9)*%
X91097400Y-24402600D02*
X94500000Y-21000000D01*
%TO.N,Net-(A1-3V3)*%
X58600000Y-77150000D02*
X57366300Y-78383700D01*
X80000000Y-73000000D02*
X75850000Y-77150000D01*
%TO.N,Net-(A1-GPIO2)*%
X30319000Y-62439000D02*
X32380000Y-64500000D01*
%TO.N,Net-(A1-3V3)*%
X56400000Y-26350000D02*
X57674300Y-25075700D01*
%TO.N,Net-(A1-GPIO5)*%
X29220000Y-58280000D02*
X30321700Y-59381700D01*
%TO.N,Net-(A1-3V3)*%
X91000000Y-73000000D02*
X89991900Y-71991900D01*
%TO.N,Net-(A1-GPIO28_ADC2)*%
X47495800Y-41606500D02*
X30326500Y-41606500D01*
%TO.N,Net-(A1-3V3)*%
X57366300Y-78383700D02*
X46683700Y-78383700D01*
%TO.N,Net-(A1-GPIO11)*%
X50986900Y-66579600D02*
X52434800Y-65131700D01*
%TO.N,Net-(A1-VSYS)*%
X82300000Y-79500000D02*
X82300000Y-80551700D01*
%TO.N,Net-(A1-GPIO2)*%
X21600000Y-58280000D02*
X25759000Y-62439000D01*
%TO.N,Net-(A1-3V3)*%
X30100000Y-26350000D02*
X31335700Y-27585700D01*
X57674300Y-25075700D02*
X68275700Y-25075700D01*
%TO.N,Net-(A1-GPIO21)*%
X53000000Y-34500000D02*
X65620000Y-34500000D01*
%TO.N,Net-(J1-Pad4)*%
X26925700Y-66694300D02*
X17284400Y-66694300D01*
%TO.N,Net-(A1-3V3)*%
X81008100Y-71991900D02*
X80000000Y-73000000D01*
%TO.N,Net-(A1-VBUS)*%
X27158900Y-78649900D02*
X27263800Y-78754800D01*
%TO.N,Net-(A1-GPIO6)*%
X52155300Y-56743600D02*
X35836400Y-56743600D01*
%TO.N,Net-(A1-3V3)*%
X55182100Y-27567900D02*
X56400000Y-26350000D01*
%TO.N,Net-(A1-GPIO27_ADC1)*%
X59236700Y-30804800D02*
X68905200Y-30804800D01*
%TO.N,Net-(A1-GPIO13)*%
X54620000Y-58280000D02*
X55754700Y-57145300D01*
%TO.N,Net-(A1-GPIO10)*%
X49952700Y-72052800D02*
X49126800Y-71226900D01*
%TO.N,Net-(A1-GPIO17)*%
X59700000Y-40500000D02*
X58393500Y-41806500D01*
%TO.N,Net-(A1-3V3)*%
X68275700Y-25075700D02*
X69550000Y-26350000D01*
X44467900Y-27567900D02*
X55182100Y-27567900D01*
%TO.N,Net-(A1-GPIO13)*%
X83060500Y-58362500D02*
X84150200Y-57272800D01*
%TO.N,Net-(A1-3V3)*%
X28844900Y-27605100D02*
X30100000Y-26350000D01*
%TO.N,Net-(A1-GPIO5)*%
X30321700Y-59381700D02*
X45761700Y-59381700D01*
%TO.N,Net-(J2-Pad4)*%
X33327400Y-66937100D02*
X35764500Y-64500000D01*
%TO.N,Net-(A1-GPIO8)*%
X50978300Y-58762000D02*
X53236100Y-61019800D01*
%TO.N,GND*%
X88544600Y-79346300D02*
X88698300Y-79500000D01*
%TO.N,Net-(A1-GPIO12)*%
X52080000Y-58280000D02*
X60691500Y-66891500D01*
%TO.N,Net-(A1-3V3)*%
X31098300Y-78351700D02*
X32300000Y-77150000D01*
X33511600Y-75938400D02*
X44238400Y-75938400D01*
%TO.N,Net-(A1-AGND)*%
X44310300Y-79199800D02*
X43462200Y-78351700D01*
%TO.N,Net-(A1-GPIO17)*%
X27950000Y-40852800D02*
X27950000Y-40126300D01*
%TO.N,Net-(A1-3V3)*%
X44238400Y-75938400D02*
X45450000Y-77150000D01*
%TO.N,Net-(A1-AGND)*%
X68559300Y-79199800D02*
X44310300Y-79199800D01*
%TO.N,Net-(A1-GPIO13)*%
X69981400Y-58362500D02*
X83060500Y-58362500D01*
%TO.N,Net-(A1-GPIO16)*%
X18220000Y-28890000D02*
X20716600Y-31386600D01*
%TO.N,Net-(A1-GPIO4)*%
X26680000Y-58280000D02*
X29116500Y-60716500D01*
%TO.N,Net-(A1-GPIO27_ADC1)*%
X42107200Y-32692800D02*
X55123400Y-32692800D01*
%TO.N,Net-(A1-GPIO14)*%
X62240000Y-58280000D02*
X59700000Y-58280000D01*
%TO.N,Net-(A1-GPIO28_ADC2)*%
X48438300Y-40664000D02*
X47495800Y-41606500D01*
%TO.N,Net-(A1-3V3)*%
X32300000Y-77150000D02*
X33511600Y-75938400D01*
X87750000Y-34150000D02*
X81288300Y-27688300D01*
X18205100Y-27605100D02*
X28844900Y-27605100D01*
X81288300Y-27688300D02*
X70888300Y-27688300D01*
X75850000Y-77150000D02*
X71750000Y-77150000D01*
%TO.N,Net-(A1-GPIO8)*%
X40514700Y-57145300D02*
X50028800Y-57145300D01*
%TO.N,Net-(A1-GPIO10)*%
X67922800Y-72052800D02*
X49952700Y-72052800D01*
%TO.N,Net-(J3-Pad4)*%
X67734000Y-76949700D02*
X67734000Y-76601900D01*
%TO.N,Net-(J1-Pad4)*%
X29120000Y-64500000D02*
X26925700Y-66694300D01*
%TO.N,Net-(A1-3V3)*%
X46683700Y-78383700D02*
X45450000Y-77150000D01*
%TO.N,Net-(A1-GPIO18)*%
X32621000Y-30141000D02*
X48820300Y-30141000D01*
%TO.N,Net-(A1-GPIO27_ADC1)*%
X55123400Y-32692800D02*
X56680300Y-31135900D01*
%TO.N,Net-(A1-GPIO6)*%
X56962600Y-62202600D02*
X53181700Y-58421700D01*
%TO.N,Net-(J7-Pad4)*%
X56400500Y-28362800D02*
X56400500Y-29701000D01*
X58413300Y-26350000D02*
X56400500Y-28362800D01*
%TO.N,Net-(A1-3V3)*%
X65586400Y-77150000D02*
X58600000Y-77150000D01*
%TO.N,Net-(J7-Pad4)*%
X55316600Y-30784900D02*
X33381800Y-30784900D01*
X56400500Y-29701000D02*
X55316600Y-30784900D01*
%TO.N,Net-(A1-GPIO27_ADC1)*%
X56846600Y-30969600D02*
X59071900Y-30969600D01*
X34300000Y-40500000D02*
X42107200Y-32692800D01*
%TO.N,Net-(A1-GPIO6)*%
X53181700Y-57770000D02*
X52155300Y-56743600D01*
%TO.N,Net-(A1-GPIO27_ADC1)*%
X56680300Y-31135900D02*
X56846600Y-30969600D01*
%TO.N,Net-(A1-GPIO26_ADC0)*%
X42840000Y-34500000D02*
X36840000Y-40500000D01*
%TO.N,Net-(J3-Pad4)*%
X65898300Y-78785400D02*
X67734000Y-76949700D01*
%TO.N,Net-(A1-3V3)*%
X27210400Y-77150000D02*
X28412100Y-78351700D01*
%TO.N,Net-(A1-GPIO6)*%
X86416900Y-60716500D02*
X84930800Y-62202600D01*
%TO.N,Net-(A1-3V3)*%
X43250000Y-26350000D02*
X44467900Y-27567900D01*
%TO.N,Net-(A1-GPIO6)*%
X84930800Y-62202600D02*
X56962600Y-62202600D01*
%TO.N,Net-(A1-GPIO11)*%
X32380000Y-70000000D02*
X35800400Y-66579600D01*
%TO.N,Net-(J4-Pad4)*%
X45889800Y-71698300D02*
X15578300Y-71698300D01*
X51341500Y-77150000D02*
X45889800Y-71698300D01*
%TO.N,Net-(J5-Pad4)*%
X69210000Y-77150000D02*
X65467300Y-73407300D01*
%TO.N,Net-(J4-Pad4)*%
X15578300Y-71698300D02*
X13880000Y-70000000D01*
X56060000Y-77150000D02*
X51341500Y-77150000D01*
%TO.N,Net-(A1-GPIO28_ADC2)*%
X68760000Y-34500000D02*
X66215600Y-37044400D01*
%TO.N,Net-(A1-GPIO16)*%
X56880800Y-30167100D02*
X59866000Y-30167100D01*
%TO.N,Net-(J7-Pad4)*%
X58940000Y-26350000D02*
X58413300Y-26350000D01*
%TO.N,Net-(J2-Pad4)*%
X35764500Y-64500000D02*
X47620000Y-64500000D01*
%TO.N,Net-(A1-GPIO8)*%
X39380000Y-58280000D02*
X40514700Y-57145300D01*
%TO.N,Net-(A1-VSYS)*%
X29054100Y-80551700D02*
X27983700Y-79481300D01*
%TO.N,Net-(A1-GPIO11)*%
X35800400Y-66579600D02*
X50986900Y-66579600D01*
%TO.N,Net-(A1-VBUS)*%
X80032100Y-79666200D02*
X80198300Y-79500000D01*
X27263800Y-78754800D02*
X43097100Y-78754800D01*
%TO.N,Net-(A1-GPIO16)*%
X20716600Y-31386600D02*
X55661300Y-31386600D01*
%TO.N,Net-(A1-GPIO5)*%
X45761700Y-59381700D02*
X50880000Y-64500000D01*
%TO.N,Net-(A1-VBUS)*%
X44008500Y-79666200D02*
X80032100Y-79666200D01*
%TO.N,Net-(A1-GPIO9)*%
X32832000Y-24402600D02*
X91097400Y-24402600D01*
%TO.N,Net-(J3-Pad4)*%
X44545400Y-78785400D02*
X65898300Y-78785400D01*
%TO.N,Net-(A1-GPIO8)*%
X50028800Y-57145300D02*
X50978300Y-58094800D01*
%TO.N,Net-(A1-3V3)*%
X19150000Y-77150000D02*
X27210400Y-77150000D01*
%TO.N,Net-(A1-AGND)*%
X39509500Y-78351700D02*
X39010500Y-77852700D01*
%TO.N,Net-(A1-GPIO6)*%
X35836400Y-56743600D02*
X34300000Y-58280000D01*
%TO.N,Net-(A1-GPIO28_ADC2)*%
X66215600Y-37044400D02*
X51142300Y-37044400D01*
%TO.N,Net-(A1-GPIO8)*%
X53236100Y-61019800D02*
X53617400Y-61019800D01*
%TO.N,Net-(A1-GPIO27_ADC1)*%
X59071900Y-30969600D02*
X59236700Y-30804800D01*
%TO.N,Net-(A1-VSYS)*%
X82300000Y-80551700D02*
X29054100Y-80551700D01*
%TO.N,Net-(A1-GPIO4)*%
X29116500Y-60716500D02*
X41973400Y-60716500D01*
%TO.N,Net-(A1-GPIO12)*%
X60691500Y-66891500D02*
X101034200Y-66891500D01*
%TO.N,Net-(A1-AGND)*%
X43462200Y-78351700D02*
X39509500Y-78351700D01*
X69310800Y-78448300D02*
X68559300Y-79199800D01*
%TO.N,Net-(A1-VBUS)*%
X81000000Y-79500000D02*
X80198300Y-79500000D01*
%TO.N,Net-(J3-Pad4)*%
X42910000Y-77150000D02*
X44545400Y-78785400D01*
%TO.N,Net-(A1-AGND)*%
X90800000Y-79500000D02*
X90800000Y-78448300D01*
%TO.N,Net-(A1-GPIO27_ADC1)*%
X59071900Y-30969600D02*
X59236700Y-30804800D01*
%TO.N,Net-(A1-VBUS)*%
X43097100Y-78754800D02*
X44008500Y-79666200D01*
%TO.N,Net-(A1-GPIO16)*%
X55661300Y-31386600D02*
X56880800Y-30167100D01*
%TO.N,Net-(A1-GPIO13)*%
X55754700Y-57145300D02*
X68764200Y-57145300D01*
%TO.N,Net-(A1-GPIO21)*%
X47000000Y-40500000D02*
X53000000Y-34500000D01*
%TO.N,Net-(A1-3V3)*%
X100991900Y-71991900D02*
X102000000Y-73000000D01*
%TD*%
M02*
