%TF.GenerationSoftware,KiCad,Pcbnew,9.0.6-9.0.6~ubuntu25.04.1*%
%TF.CreationDate,2025-12-30T14:46:32-08:00*%
%TF.ProjectId,buzzer-pcb,62757a7a-6572-42d7-9063-622e6b696361,0*%
%TF.SameCoordinates,Original*%
%TF.FileFunction,Legend,Top*%
%TF.FilePolarity,Positive*%
%FSLAX46Y46*%
G04 Gerber Fmt 4.6, Leading zero omitted, Abs format (unit mm)*
G04 Created by KiCad (PCBNEW 9.0.6-9.0.6~ubuntu25.04.1) date 2025-12-30 14:46:32*
%MOMM*%
%LPD*%
G01*
G04 APERTURE LIST*
%ADD10C,0.100000*%
%ADD11C,0.150000*%
%ADD12C,0.120000*%
%ADD13C,0.127000*%
G04 APERTURE END LIST*
D10*
X83303884Y-69238631D02*
X83303884Y-68238631D01*
X83303884Y-68238631D02*
X83541979Y-68238631D01*
X83541979Y-68238631D02*
X83684836Y-68286250D01*
X83684836Y-68286250D02*
X83780074Y-68381488D01*
X83780074Y-68381488D02*
X83827693Y-68476726D01*
X83827693Y-68476726D02*
X83875312Y-68667202D01*
X83875312Y-68667202D02*
X83875312Y-68810059D01*
X83875312Y-68810059D02*
X83827693Y-69000535D01*
X83827693Y-69000535D02*
X83780074Y-69095773D01*
X83780074Y-69095773D02*
X83684836Y-69191012D01*
X83684836Y-69191012D02*
X83541979Y-69238631D01*
X83541979Y-69238631D02*
X83303884Y-69238631D01*
X84684836Y-69191012D02*
X84589598Y-69238631D01*
X84589598Y-69238631D02*
X84399122Y-69238631D01*
X84399122Y-69238631D02*
X84303884Y-69191012D01*
X84303884Y-69191012D02*
X84256265Y-69095773D01*
X84256265Y-69095773D02*
X84256265Y-68714821D01*
X84256265Y-68714821D02*
X84303884Y-68619583D01*
X84303884Y-68619583D02*
X84399122Y-68571964D01*
X84399122Y-68571964D02*
X84589598Y-68571964D01*
X84589598Y-68571964D02*
X84684836Y-68619583D01*
X84684836Y-68619583D02*
X84732455Y-68714821D01*
X84732455Y-68714821D02*
X84732455Y-68810059D01*
X84732455Y-68810059D02*
X84256265Y-68905297D01*
X85589598Y-69191012D02*
X85494360Y-69238631D01*
X85494360Y-69238631D02*
X85303884Y-69238631D01*
X85303884Y-69238631D02*
X85208646Y-69191012D01*
X85208646Y-69191012D02*
X85161027Y-69143392D01*
X85161027Y-69143392D02*
X85113408Y-69048154D01*
X85113408Y-69048154D02*
X85113408Y-68762440D01*
X85113408Y-68762440D02*
X85161027Y-68667202D01*
X85161027Y-68667202D02*
X85208646Y-68619583D01*
X85208646Y-68619583D02*
X85303884Y-68571964D01*
X85303884Y-68571964D02*
X85494360Y-68571964D01*
X85494360Y-68571964D02*
X85589598Y-68619583D01*
X86161027Y-69238631D02*
X86065789Y-69191012D01*
X86065789Y-69191012D02*
X86018170Y-69143392D01*
X86018170Y-69143392D02*
X85970551Y-69048154D01*
X85970551Y-69048154D02*
X85970551Y-68762440D01*
X85970551Y-68762440D02*
X86018170Y-68667202D01*
X86018170Y-68667202D02*
X86065789Y-68619583D01*
X86065789Y-68619583D02*
X86161027Y-68571964D01*
X86161027Y-68571964D02*
X86303884Y-68571964D01*
X86303884Y-68571964D02*
X86399122Y-68619583D01*
X86399122Y-68619583D02*
X86446741Y-68667202D01*
X86446741Y-68667202D02*
X86494360Y-68762440D01*
X86494360Y-68762440D02*
X86494360Y-69048154D01*
X86494360Y-69048154D02*
X86446741Y-69143392D01*
X86446741Y-69143392D02*
X86399122Y-69191012D01*
X86399122Y-69191012D02*
X86303884Y-69238631D01*
X86303884Y-69238631D02*
X86161027Y-69238631D01*
X87351503Y-68571964D02*
X87351503Y-69238631D01*
X86922932Y-68571964D02*
X86922932Y-69095773D01*
X86922932Y-69095773D02*
X86970551Y-69191012D01*
X86970551Y-69191012D02*
X87065789Y-69238631D01*
X87065789Y-69238631D02*
X87208646Y-69238631D01*
X87208646Y-69238631D02*
X87303884Y-69191012D01*
X87303884Y-69191012D02*
X87351503Y-69143392D01*
X87827694Y-68571964D02*
X87827694Y-69571964D01*
X87827694Y-68619583D02*
X87922932Y-68571964D01*
X87922932Y-68571964D02*
X88113408Y-68571964D01*
X88113408Y-68571964D02*
X88208646Y-68619583D01*
X88208646Y-68619583D02*
X88256265Y-68667202D01*
X88256265Y-68667202D02*
X88303884Y-68762440D01*
X88303884Y-68762440D02*
X88303884Y-69048154D01*
X88303884Y-69048154D02*
X88256265Y-69143392D01*
X88256265Y-69143392D02*
X88208646Y-69191012D01*
X88208646Y-69191012D02*
X88113408Y-69238631D01*
X88113408Y-69238631D02*
X87922932Y-69238631D01*
X87922932Y-69238631D02*
X87827694Y-69191012D01*
X88875313Y-69238631D02*
X88780075Y-69191012D01*
X88780075Y-69191012D02*
X88732456Y-69095773D01*
X88732456Y-69095773D02*
X88732456Y-68238631D01*
X89256266Y-69238631D02*
X89256266Y-68571964D01*
X89256266Y-68238631D02*
X89208647Y-68286250D01*
X89208647Y-68286250D02*
X89256266Y-68333869D01*
X89256266Y-68333869D02*
X89303885Y-68286250D01*
X89303885Y-68286250D02*
X89256266Y-68238631D01*
X89256266Y-68238631D02*
X89256266Y-68333869D01*
X89732456Y-68571964D02*
X89732456Y-69238631D01*
X89732456Y-68667202D02*
X89780075Y-68619583D01*
X89780075Y-68619583D02*
X89875313Y-68571964D01*
X89875313Y-68571964D02*
X90018170Y-68571964D01*
X90018170Y-68571964D02*
X90113408Y-68619583D01*
X90113408Y-68619583D02*
X90161027Y-68714821D01*
X90161027Y-68714821D02*
X90161027Y-69238631D01*
X91065789Y-68571964D02*
X91065789Y-69381488D01*
X91065789Y-69381488D02*
X91018170Y-69476726D01*
X91018170Y-69476726D02*
X90970551Y-69524345D01*
X90970551Y-69524345D02*
X90875313Y-69571964D01*
X90875313Y-69571964D02*
X90732456Y-69571964D01*
X90732456Y-69571964D02*
X90637218Y-69524345D01*
X91065789Y-69191012D02*
X90970551Y-69238631D01*
X90970551Y-69238631D02*
X90780075Y-69238631D01*
X90780075Y-69238631D02*
X90684837Y-69191012D01*
X90684837Y-69191012D02*
X90637218Y-69143392D01*
X90637218Y-69143392D02*
X90589599Y-69048154D01*
X90589599Y-69048154D02*
X90589599Y-68762440D01*
X90589599Y-68762440D02*
X90637218Y-68667202D01*
X90637218Y-68667202D02*
X90684837Y-68619583D01*
X90684837Y-68619583D02*
X90780075Y-68571964D01*
X90780075Y-68571964D02*
X90970551Y-68571964D01*
X90970551Y-68571964D02*
X91065789Y-68619583D01*
X92875313Y-69143392D02*
X92827694Y-69191012D01*
X92827694Y-69191012D02*
X92684837Y-69238631D01*
X92684837Y-69238631D02*
X92589599Y-69238631D01*
X92589599Y-69238631D02*
X92446742Y-69191012D01*
X92446742Y-69191012D02*
X92351504Y-69095773D01*
X92351504Y-69095773D02*
X92303885Y-69000535D01*
X92303885Y-69000535D02*
X92256266Y-68810059D01*
X92256266Y-68810059D02*
X92256266Y-68667202D01*
X92256266Y-68667202D02*
X92303885Y-68476726D01*
X92303885Y-68476726D02*
X92351504Y-68381488D01*
X92351504Y-68381488D02*
X92446742Y-68286250D01*
X92446742Y-68286250D02*
X92589599Y-68238631D01*
X92589599Y-68238631D02*
X92684837Y-68238631D01*
X92684837Y-68238631D02*
X92827694Y-68286250D01*
X92827694Y-68286250D02*
X92875313Y-68333869D01*
X93732456Y-69238631D02*
X93732456Y-68714821D01*
X93732456Y-68714821D02*
X93684837Y-68619583D01*
X93684837Y-68619583D02*
X93589599Y-68571964D01*
X93589599Y-68571964D02*
X93399123Y-68571964D01*
X93399123Y-68571964D02*
X93303885Y-68619583D01*
X93732456Y-69191012D02*
X93637218Y-69238631D01*
X93637218Y-69238631D02*
X93399123Y-69238631D01*
X93399123Y-69238631D02*
X93303885Y-69191012D01*
X93303885Y-69191012D02*
X93256266Y-69095773D01*
X93256266Y-69095773D02*
X93256266Y-69000535D01*
X93256266Y-69000535D02*
X93303885Y-68905297D01*
X93303885Y-68905297D02*
X93399123Y-68857678D01*
X93399123Y-68857678D02*
X93637218Y-68857678D01*
X93637218Y-68857678D02*
X93732456Y-68810059D01*
X94208647Y-68571964D02*
X94208647Y-69571964D01*
X94208647Y-68619583D02*
X94303885Y-68571964D01*
X94303885Y-68571964D02*
X94494361Y-68571964D01*
X94494361Y-68571964D02*
X94589599Y-68619583D01*
X94589599Y-68619583D02*
X94637218Y-68667202D01*
X94637218Y-68667202D02*
X94684837Y-68762440D01*
X94684837Y-68762440D02*
X94684837Y-69048154D01*
X94684837Y-69048154D02*
X94637218Y-69143392D01*
X94637218Y-69143392D02*
X94589599Y-69191012D01*
X94589599Y-69191012D02*
X94494361Y-69238631D01*
X94494361Y-69238631D02*
X94303885Y-69238631D01*
X94303885Y-69238631D02*
X94208647Y-69191012D01*
X95541980Y-69238631D02*
X95541980Y-68714821D01*
X95541980Y-68714821D02*
X95494361Y-68619583D01*
X95494361Y-68619583D02*
X95399123Y-68571964D01*
X95399123Y-68571964D02*
X95208647Y-68571964D01*
X95208647Y-68571964D02*
X95113409Y-68619583D01*
X95541980Y-69191012D02*
X95446742Y-69238631D01*
X95446742Y-69238631D02*
X95208647Y-69238631D01*
X95208647Y-69238631D02*
X95113409Y-69191012D01*
X95113409Y-69191012D02*
X95065790Y-69095773D01*
X95065790Y-69095773D02*
X95065790Y-69000535D01*
X95065790Y-69000535D02*
X95113409Y-68905297D01*
X95113409Y-68905297D02*
X95208647Y-68857678D01*
X95208647Y-68857678D02*
X95446742Y-68857678D01*
X95446742Y-68857678D02*
X95541980Y-68810059D01*
X96446742Y-69191012D02*
X96351504Y-69238631D01*
X96351504Y-69238631D02*
X96161028Y-69238631D01*
X96161028Y-69238631D02*
X96065790Y-69191012D01*
X96065790Y-69191012D02*
X96018171Y-69143392D01*
X96018171Y-69143392D02*
X95970552Y-69048154D01*
X95970552Y-69048154D02*
X95970552Y-68762440D01*
X95970552Y-68762440D02*
X96018171Y-68667202D01*
X96018171Y-68667202D02*
X96065790Y-68619583D01*
X96065790Y-68619583D02*
X96161028Y-68571964D01*
X96161028Y-68571964D02*
X96351504Y-68571964D01*
X96351504Y-68571964D02*
X96446742Y-68619583D01*
X96875314Y-69238631D02*
X96875314Y-68571964D01*
X96875314Y-68238631D02*
X96827695Y-68286250D01*
X96827695Y-68286250D02*
X96875314Y-68333869D01*
X96875314Y-68333869D02*
X96922933Y-68286250D01*
X96922933Y-68286250D02*
X96875314Y-68238631D01*
X96875314Y-68238631D02*
X96875314Y-68333869D01*
X97208647Y-68571964D02*
X97589599Y-68571964D01*
X97351504Y-68238631D02*
X97351504Y-69095773D01*
X97351504Y-69095773D02*
X97399123Y-69191012D01*
X97399123Y-69191012D02*
X97494361Y-69238631D01*
X97494361Y-69238631D02*
X97589599Y-69238631D01*
X98065790Y-69238631D02*
X97970552Y-69191012D01*
X97970552Y-69191012D02*
X97922933Y-69143392D01*
X97922933Y-69143392D02*
X97875314Y-69048154D01*
X97875314Y-69048154D02*
X97875314Y-68762440D01*
X97875314Y-68762440D02*
X97922933Y-68667202D01*
X97922933Y-68667202D02*
X97970552Y-68619583D01*
X97970552Y-68619583D02*
X98065790Y-68571964D01*
X98065790Y-68571964D02*
X98208647Y-68571964D01*
X98208647Y-68571964D02*
X98303885Y-68619583D01*
X98303885Y-68619583D02*
X98351504Y-68667202D01*
X98351504Y-68667202D02*
X98399123Y-68762440D01*
X98399123Y-68762440D02*
X98399123Y-69048154D01*
X98399123Y-69048154D02*
X98351504Y-69143392D01*
X98351504Y-69143392D02*
X98303885Y-69191012D01*
X98303885Y-69191012D02*
X98208647Y-69238631D01*
X98208647Y-69238631D02*
X98065790Y-69238631D01*
X98827695Y-69238631D02*
X98827695Y-68571964D01*
X98827695Y-68762440D02*
X98875314Y-68667202D01*
X98875314Y-68667202D02*
X98922933Y-68619583D01*
X98922933Y-68619583D02*
X99018171Y-68571964D01*
X99018171Y-68571964D02*
X99113409Y-68571964D01*
X99399124Y-69191012D02*
X99494362Y-69238631D01*
X99494362Y-69238631D02*
X99684838Y-69238631D01*
X99684838Y-69238631D02*
X99780076Y-69191012D01*
X99780076Y-69191012D02*
X99827695Y-69095773D01*
X99827695Y-69095773D02*
X99827695Y-69048154D01*
X99827695Y-69048154D02*
X99780076Y-68952916D01*
X99780076Y-68952916D02*
X99684838Y-68905297D01*
X99684838Y-68905297D02*
X99541981Y-68905297D01*
X99541981Y-68905297D02*
X99446743Y-68857678D01*
X99446743Y-68857678D02*
X99399124Y-68762440D01*
X99399124Y-68762440D02*
X99399124Y-68714821D01*
X99399124Y-68714821D02*
X99446743Y-68619583D01*
X99446743Y-68619583D02*
X99541981Y-68571964D01*
X99541981Y-68571964D02*
X99684838Y-68571964D01*
X99684838Y-68571964D02*
X99780076Y-68619583D01*
D11*
X39833333Y-64954819D02*
X39500000Y-64478628D01*
X39261905Y-64954819D02*
X39261905Y-63954819D01*
X39261905Y-63954819D02*
X39642857Y-63954819D01*
X39642857Y-63954819D02*
X39738095Y-64002438D01*
X39738095Y-64002438D02*
X39785714Y-64050057D01*
X39785714Y-64050057D02*
X39833333Y-64145295D01*
X39833333Y-64145295D02*
X39833333Y-64288152D01*
X39833333Y-64288152D02*
X39785714Y-64383390D01*
X39785714Y-64383390D02*
X39738095Y-64431009D01*
X39738095Y-64431009D02*
X39642857Y-64478628D01*
X39642857Y-64478628D02*
X39261905Y-64478628D01*
X40214286Y-64050057D02*
X40261905Y-64002438D01*
X40261905Y-64002438D02*
X40357143Y-63954819D01*
X40357143Y-63954819D02*
X40595238Y-63954819D01*
X40595238Y-63954819D02*
X40690476Y-64002438D01*
X40690476Y-64002438D02*
X40738095Y-64050057D01*
X40738095Y-64050057D02*
X40785714Y-64145295D01*
X40785714Y-64145295D02*
X40785714Y-64240533D01*
X40785714Y-64240533D02*
X40738095Y-64383390D01*
X40738095Y-64383390D02*
X40166667Y-64954819D01*
X40166667Y-64954819D02*
X40785714Y-64954819D01*
X184569819Y-10821904D02*
X185379342Y-10821904D01*
X185379342Y-10821904D02*
X185474580Y-10774285D01*
X185474580Y-10774285D02*
X185522200Y-10726666D01*
X185522200Y-10726666D02*
X185569819Y-10631428D01*
X185569819Y-10631428D02*
X185569819Y-10440952D01*
X185569819Y-10440952D02*
X185522200Y-10345714D01*
X185522200Y-10345714D02*
X185474580Y-10298095D01*
X185474580Y-10298095D02*
X185379342Y-10250476D01*
X185379342Y-10250476D02*
X184569819Y-10250476D01*
X185569819Y-9250476D02*
X185569819Y-9821904D01*
X185569819Y-9536190D02*
X184569819Y-9536190D01*
X184569819Y-9536190D02*
X184712676Y-9631428D01*
X184712676Y-9631428D02*
X184807914Y-9726666D01*
X184807914Y-9726666D02*
X184855533Y-9821904D01*
X43616666Y-30630819D02*
X43616666Y-31345104D01*
X43616666Y-31345104D02*
X43569047Y-31487961D01*
X43569047Y-31487961D02*
X43473809Y-31583200D01*
X43473809Y-31583200D02*
X43330952Y-31630819D01*
X43330952Y-31630819D02*
X43235714Y-31630819D01*
X44235714Y-31059390D02*
X44140476Y-31011771D01*
X44140476Y-31011771D02*
X44092857Y-30964152D01*
X44092857Y-30964152D02*
X44045238Y-30868914D01*
X44045238Y-30868914D02*
X44045238Y-30821295D01*
X44045238Y-30821295D02*
X44092857Y-30726057D01*
X44092857Y-30726057D02*
X44140476Y-30678438D01*
X44140476Y-30678438D02*
X44235714Y-30630819D01*
X44235714Y-30630819D02*
X44426190Y-30630819D01*
X44426190Y-30630819D02*
X44521428Y-30678438D01*
X44521428Y-30678438D02*
X44569047Y-30726057D01*
X44569047Y-30726057D02*
X44616666Y-30821295D01*
X44616666Y-30821295D02*
X44616666Y-30868914D01*
X44616666Y-30868914D02*
X44569047Y-30964152D01*
X44569047Y-30964152D02*
X44521428Y-31011771D01*
X44521428Y-31011771D02*
X44426190Y-31059390D01*
X44426190Y-31059390D02*
X44235714Y-31059390D01*
X44235714Y-31059390D02*
X44140476Y-31107009D01*
X44140476Y-31107009D02*
X44092857Y-31154628D01*
X44092857Y-31154628D02*
X44045238Y-31249866D01*
X44045238Y-31249866D02*
X44045238Y-31440342D01*
X44045238Y-31440342D02*
X44092857Y-31535580D01*
X44092857Y-31535580D02*
X44140476Y-31583200D01*
X44140476Y-31583200D02*
X44235714Y-31630819D01*
X44235714Y-31630819D02*
X44426190Y-31630819D01*
X44426190Y-31630819D02*
X44521428Y-31583200D01*
X44521428Y-31583200D02*
X44569047Y-31535580D01*
X44569047Y-31535580D02*
X44616666Y-31440342D01*
X44616666Y-31440342D02*
X44616666Y-31249866D01*
X44616666Y-31249866D02*
X44569047Y-31154628D01*
X44569047Y-31154628D02*
X44521428Y-31107009D01*
X44521428Y-31107009D02*
X44426190Y-31059390D01*
X20357142Y-34954819D02*
X20023809Y-34478628D01*
X19785714Y-34954819D02*
X19785714Y-33954819D01*
X19785714Y-33954819D02*
X20166666Y-33954819D01*
X20166666Y-33954819D02*
X20261904Y-34002438D01*
X20261904Y-34002438D02*
X20309523Y-34050057D01*
X20309523Y-34050057D02*
X20357142Y-34145295D01*
X20357142Y-34145295D02*
X20357142Y-34288152D01*
X20357142Y-34288152D02*
X20309523Y-34383390D01*
X20309523Y-34383390D02*
X20261904Y-34431009D01*
X20261904Y-34431009D02*
X20166666Y-34478628D01*
X20166666Y-34478628D02*
X19785714Y-34478628D01*
X21309523Y-34954819D02*
X20738095Y-34954819D01*
X21023809Y-34954819D02*
X21023809Y-33954819D01*
X21023809Y-33954819D02*
X20928571Y-34097676D01*
X20928571Y-34097676D02*
X20833333Y-34192914D01*
X20833333Y-34192914D02*
X20738095Y-34240533D01*
X21928571Y-33954819D02*
X22023809Y-33954819D01*
X22023809Y-33954819D02*
X22119047Y-34002438D01*
X22119047Y-34002438D02*
X22166666Y-34050057D01*
X22166666Y-34050057D02*
X22214285Y-34145295D01*
X22214285Y-34145295D02*
X22261904Y-34335771D01*
X22261904Y-34335771D02*
X22261904Y-34573866D01*
X22261904Y-34573866D02*
X22214285Y-34764342D01*
X22214285Y-34764342D02*
X22166666Y-34859580D01*
X22166666Y-34859580D02*
X22119047Y-34907200D01*
X22119047Y-34907200D02*
X22023809Y-34954819D01*
X22023809Y-34954819D02*
X21928571Y-34954819D01*
X21928571Y-34954819D02*
X21833333Y-34907200D01*
X21833333Y-34907200D02*
X21785714Y-34859580D01*
X21785714Y-34859580D02*
X21738095Y-34764342D01*
X21738095Y-34764342D02*
X21690476Y-34573866D01*
X21690476Y-34573866D02*
X21690476Y-34335771D01*
X21690476Y-34335771D02*
X21738095Y-34145295D01*
X21738095Y-34145295D02*
X21785714Y-34050057D01*
X21785714Y-34050057D02*
X21833333Y-34002438D01*
X21833333Y-34002438D02*
X21928571Y-33954819D01*
X97857142Y-83407200D02*
X97999999Y-83454819D01*
X97999999Y-83454819D02*
X98238094Y-83454819D01*
X98238094Y-83454819D02*
X98333332Y-83407200D01*
X98333332Y-83407200D02*
X98380951Y-83359580D01*
X98380951Y-83359580D02*
X98428570Y-83264342D01*
X98428570Y-83264342D02*
X98428570Y-83169104D01*
X98428570Y-83169104D02*
X98380951Y-83073866D01*
X98380951Y-83073866D02*
X98333332Y-83026247D01*
X98333332Y-83026247D02*
X98238094Y-82978628D01*
X98238094Y-82978628D02*
X98047618Y-82931009D01*
X98047618Y-82931009D02*
X97952380Y-82883390D01*
X97952380Y-82883390D02*
X97904761Y-82835771D01*
X97904761Y-82835771D02*
X97857142Y-82740533D01*
X97857142Y-82740533D02*
X97857142Y-82645295D01*
X97857142Y-82645295D02*
X97904761Y-82550057D01*
X97904761Y-82550057D02*
X97952380Y-82502438D01*
X97952380Y-82502438D02*
X98047618Y-82454819D01*
X98047618Y-82454819D02*
X98285713Y-82454819D01*
X98285713Y-82454819D02*
X98428570Y-82502438D01*
X98714285Y-82788152D02*
X99095237Y-82788152D01*
X98857142Y-82454819D02*
X98857142Y-83311961D01*
X98857142Y-83311961D02*
X98904761Y-83407200D01*
X98904761Y-83407200D02*
X98999999Y-83454819D01*
X98999999Y-83454819D02*
X99095237Y-83454819D01*
X99857142Y-83454819D02*
X99857142Y-82931009D01*
X99857142Y-82931009D02*
X99809523Y-82835771D01*
X99809523Y-82835771D02*
X99714285Y-82788152D01*
X99714285Y-82788152D02*
X99523809Y-82788152D01*
X99523809Y-82788152D02*
X99428571Y-82835771D01*
X99857142Y-83407200D02*
X99761904Y-83454819D01*
X99761904Y-83454819D02*
X99523809Y-83454819D01*
X99523809Y-83454819D02*
X99428571Y-83407200D01*
X99428571Y-83407200D02*
X99380952Y-83311961D01*
X99380952Y-83311961D02*
X99380952Y-83216723D01*
X99380952Y-83216723D02*
X99428571Y-83121485D01*
X99428571Y-83121485D02*
X99523809Y-83073866D01*
X99523809Y-83073866D02*
X99761904Y-83073866D01*
X99761904Y-83073866D02*
X99857142Y-83026247D01*
X100190476Y-82788152D02*
X100571428Y-82788152D01*
X100333333Y-82454819D02*
X100333333Y-83311961D01*
X100333333Y-83311961D02*
X100380952Y-83407200D01*
X100380952Y-83407200D02*
X100476190Y-83454819D01*
X100476190Y-83454819D02*
X100571428Y-83454819D01*
X101333333Y-82788152D02*
X101333333Y-83454819D01*
X100904762Y-82788152D02*
X100904762Y-83311961D01*
X100904762Y-83311961D02*
X100952381Y-83407200D01*
X100952381Y-83407200D02*
X101047619Y-83454819D01*
X101047619Y-83454819D02*
X101190476Y-83454819D01*
X101190476Y-83454819D02*
X101285714Y-83407200D01*
X101285714Y-83407200D02*
X101333333Y-83359580D01*
X101761905Y-83407200D02*
X101857143Y-83454819D01*
X101857143Y-83454819D02*
X102047619Y-83454819D01*
X102047619Y-83454819D02*
X102142857Y-83407200D01*
X102142857Y-83407200D02*
X102190476Y-83311961D01*
X102190476Y-83311961D02*
X102190476Y-83264342D01*
X102190476Y-83264342D02*
X102142857Y-83169104D01*
X102142857Y-83169104D02*
X102047619Y-83121485D01*
X102047619Y-83121485D02*
X101904762Y-83121485D01*
X101904762Y-83121485D02*
X101809524Y-83073866D01*
X101809524Y-83073866D02*
X101761905Y-82978628D01*
X101761905Y-82978628D02*
X101761905Y-82931009D01*
X101761905Y-82931009D02*
X101809524Y-82835771D01*
X101809524Y-82835771D02*
X101904762Y-82788152D01*
X101904762Y-82788152D02*
X102047619Y-82788152D01*
X102047619Y-82788152D02*
X102142857Y-82835771D01*
X102571429Y-82550057D02*
X102619048Y-82502438D01*
X102619048Y-82502438D02*
X102714286Y-82454819D01*
X102714286Y-82454819D02*
X102952381Y-82454819D01*
X102952381Y-82454819D02*
X103047619Y-82502438D01*
X103047619Y-82502438D02*
X103095238Y-82550057D01*
X103095238Y-82550057D02*
X103142857Y-82645295D01*
X103142857Y-82645295D02*
X103142857Y-82740533D01*
X103142857Y-82740533D02*
X103095238Y-82883390D01*
X103095238Y-82883390D02*
X102523810Y-83454819D01*
X102523810Y-83454819D02*
X103142857Y-83454819D01*
X85380951Y-14359580D02*
X85333332Y-14407200D01*
X85333332Y-14407200D02*
X85190475Y-14454819D01*
X85190475Y-14454819D02*
X85095237Y-14454819D01*
X85095237Y-14454819D02*
X84952380Y-14407200D01*
X84952380Y-14407200D02*
X84857142Y-14311961D01*
X84857142Y-14311961D02*
X84809523Y-14216723D01*
X84809523Y-14216723D02*
X84761904Y-14026247D01*
X84761904Y-14026247D02*
X84761904Y-13883390D01*
X84761904Y-13883390D02*
X84809523Y-13692914D01*
X84809523Y-13692914D02*
X84857142Y-13597676D01*
X84857142Y-13597676D02*
X84952380Y-13502438D01*
X84952380Y-13502438D02*
X85095237Y-13454819D01*
X85095237Y-13454819D02*
X85190475Y-13454819D01*
X85190475Y-13454819D02*
X85333332Y-13502438D01*
X85333332Y-13502438D02*
X85380951Y-13550057D01*
X85952380Y-14454819D02*
X85857142Y-14407200D01*
X85857142Y-14407200D02*
X85809523Y-14311961D01*
X85809523Y-14311961D02*
X85809523Y-13454819D01*
X86714285Y-14407200D02*
X86619047Y-14454819D01*
X86619047Y-14454819D02*
X86428571Y-14454819D01*
X86428571Y-14454819D02*
X86333333Y-14407200D01*
X86333333Y-14407200D02*
X86285714Y-14311961D01*
X86285714Y-14311961D02*
X86285714Y-13931009D01*
X86285714Y-13931009D02*
X86333333Y-13835771D01*
X86333333Y-13835771D02*
X86428571Y-13788152D01*
X86428571Y-13788152D02*
X86619047Y-13788152D01*
X86619047Y-13788152D02*
X86714285Y-13835771D01*
X86714285Y-13835771D02*
X86761904Y-13931009D01*
X86761904Y-13931009D02*
X86761904Y-14026247D01*
X86761904Y-14026247D02*
X86285714Y-14121485D01*
X87619047Y-14454819D02*
X87619047Y-13931009D01*
X87619047Y-13931009D02*
X87571428Y-13835771D01*
X87571428Y-13835771D02*
X87476190Y-13788152D01*
X87476190Y-13788152D02*
X87285714Y-13788152D01*
X87285714Y-13788152D02*
X87190476Y-13835771D01*
X87619047Y-14407200D02*
X87523809Y-14454819D01*
X87523809Y-14454819D02*
X87285714Y-14454819D01*
X87285714Y-14454819D02*
X87190476Y-14407200D01*
X87190476Y-14407200D02*
X87142857Y-14311961D01*
X87142857Y-14311961D02*
X87142857Y-14216723D01*
X87142857Y-14216723D02*
X87190476Y-14121485D01*
X87190476Y-14121485D02*
X87285714Y-14073866D01*
X87285714Y-14073866D02*
X87523809Y-14073866D01*
X87523809Y-14073866D02*
X87619047Y-14026247D01*
X88095238Y-14454819D02*
X88095238Y-13788152D01*
X88095238Y-13978628D02*
X88142857Y-13883390D01*
X88142857Y-13883390D02*
X88190476Y-13835771D01*
X88190476Y-13835771D02*
X88285714Y-13788152D01*
X88285714Y-13788152D02*
X88380952Y-13788152D01*
X89238095Y-14454819D02*
X88666667Y-14454819D01*
X88952381Y-14454819D02*
X88952381Y-13454819D01*
X88952381Y-13454819D02*
X88857143Y-13597676D01*
X88857143Y-13597676D02*
X88761905Y-13692914D01*
X88761905Y-13692914D02*
X88666667Y-13740533D01*
X77666666Y-78954819D02*
X77666666Y-79669104D01*
X77666666Y-79669104D02*
X77619047Y-79811961D01*
X77619047Y-79811961D02*
X77523809Y-79907200D01*
X77523809Y-79907200D02*
X77380952Y-79954819D01*
X77380952Y-79954819D02*
X77285714Y-79954819D01*
X78142857Y-79954819D02*
X78142857Y-78954819D01*
X78142857Y-78954819D02*
X78523809Y-78954819D01*
X78523809Y-78954819D02*
X78619047Y-79002438D01*
X78619047Y-79002438D02*
X78666666Y-79050057D01*
X78666666Y-79050057D02*
X78714285Y-79145295D01*
X78714285Y-79145295D02*
X78714285Y-79288152D01*
X78714285Y-79288152D02*
X78666666Y-79383390D01*
X78666666Y-79383390D02*
X78619047Y-79431009D01*
X78619047Y-79431009D02*
X78523809Y-79478628D01*
X78523809Y-79478628D02*
X78142857Y-79478628D01*
X79666666Y-79954819D02*
X79095238Y-79954819D01*
X79380952Y-79954819D02*
X79380952Y-78954819D01*
X79380952Y-78954819D02*
X79285714Y-79097676D01*
X79285714Y-79097676D02*
X79190476Y-79192914D01*
X79190476Y-79192914D02*
X79095238Y-79240533D01*
X57833333Y-34954819D02*
X57500000Y-34478628D01*
X57261905Y-34954819D02*
X57261905Y-33954819D01*
X57261905Y-33954819D02*
X57642857Y-33954819D01*
X57642857Y-33954819D02*
X57738095Y-34002438D01*
X57738095Y-34002438D02*
X57785714Y-34050057D01*
X57785714Y-34050057D02*
X57833333Y-34145295D01*
X57833333Y-34145295D02*
X57833333Y-34288152D01*
X57833333Y-34288152D02*
X57785714Y-34383390D01*
X57785714Y-34383390D02*
X57738095Y-34431009D01*
X57738095Y-34431009D02*
X57642857Y-34478628D01*
X57642857Y-34478628D02*
X57261905Y-34478628D01*
X58404762Y-34383390D02*
X58309524Y-34335771D01*
X58309524Y-34335771D02*
X58261905Y-34288152D01*
X58261905Y-34288152D02*
X58214286Y-34192914D01*
X58214286Y-34192914D02*
X58214286Y-34145295D01*
X58214286Y-34145295D02*
X58261905Y-34050057D01*
X58261905Y-34050057D02*
X58309524Y-34002438D01*
X58309524Y-34002438D02*
X58404762Y-33954819D01*
X58404762Y-33954819D02*
X58595238Y-33954819D01*
X58595238Y-33954819D02*
X58690476Y-34002438D01*
X58690476Y-34002438D02*
X58738095Y-34050057D01*
X58738095Y-34050057D02*
X58785714Y-34145295D01*
X58785714Y-34145295D02*
X58785714Y-34192914D01*
X58785714Y-34192914D02*
X58738095Y-34288152D01*
X58738095Y-34288152D02*
X58690476Y-34335771D01*
X58690476Y-34335771D02*
X58595238Y-34383390D01*
X58595238Y-34383390D02*
X58404762Y-34383390D01*
X58404762Y-34383390D02*
X58309524Y-34431009D01*
X58309524Y-34431009D02*
X58261905Y-34478628D01*
X58261905Y-34478628D02*
X58214286Y-34573866D01*
X58214286Y-34573866D02*
X58214286Y-34764342D01*
X58214286Y-34764342D02*
X58261905Y-34859580D01*
X58261905Y-34859580D02*
X58309524Y-34907200D01*
X58309524Y-34907200D02*
X58404762Y-34954819D01*
X58404762Y-34954819D02*
X58595238Y-34954819D01*
X58595238Y-34954819D02*
X58690476Y-34907200D01*
X58690476Y-34907200D02*
X58738095Y-34859580D01*
X58738095Y-34859580D02*
X58785714Y-34764342D01*
X58785714Y-34764342D02*
X58785714Y-34573866D01*
X58785714Y-34573866D02*
X58738095Y-34478628D01*
X58738095Y-34478628D02*
X58690476Y-34431009D01*
X58690476Y-34431009D02*
X58595238Y-34383390D01*
X69916666Y-30630819D02*
X69916666Y-31345104D01*
X69916666Y-31345104D02*
X69869047Y-31487961D01*
X69869047Y-31487961D02*
X69773809Y-31583200D01*
X69773809Y-31583200D02*
X69630952Y-31630819D01*
X69630952Y-31630819D02*
X69535714Y-31630819D01*
X70821428Y-30630819D02*
X70630952Y-30630819D01*
X70630952Y-30630819D02*
X70535714Y-30678438D01*
X70535714Y-30678438D02*
X70488095Y-30726057D01*
X70488095Y-30726057D02*
X70392857Y-30868914D01*
X70392857Y-30868914D02*
X70345238Y-31059390D01*
X70345238Y-31059390D02*
X70345238Y-31440342D01*
X70345238Y-31440342D02*
X70392857Y-31535580D01*
X70392857Y-31535580D02*
X70440476Y-31583200D01*
X70440476Y-31583200D02*
X70535714Y-31630819D01*
X70535714Y-31630819D02*
X70726190Y-31630819D01*
X70726190Y-31630819D02*
X70821428Y-31583200D01*
X70821428Y-31583200D02*
X70869047Y-31535580D01*
X70869047Y-31535580D02*
X70916666Y-31440342D01*
X70916666Y-31440342D02*
X70916666Y-31202247D01*
X70916666Y-31202247D02*
X70869047Y-31107009D01*
X70869047Y-31107009D02*
X70821428Y-31059390D01*
X70821428Y-31059390D02*
X70726190Y-31011771D01*
X70726190Y-31011771D02*
X70535714Y-31011771D01*
X70535714Y-31011771D02*
X70440476Y-31059390D01*
X70440476Y-31059390D02*
X70392857Y-31107009D01*
X70392857Y-31107009D02*
X70345238Y-31202247D01*
X57566666Y-85454819D02*
X57566666Y-86169104D01*
X57566666Y-86169104D02*
X57519047Y-86311961D01*
X57519047Y-86311961D02*
X57423809Y-86407200D01*
X57423809Y-86407200D02*
X57280952Y-86454819D01*
X57280952Y-86454819D02*
X57185714Y-86454819D01*
X58471428Y-85788152D02*
X58471428Y-86454819D01*
X58233333Y-85407200D02*
X57995238Y-86121485D01*
X57995238Y-86121485D02*
X58614285Y-86121485D01*
X56766666Y-30630819D02*
X56766666Y-31345104D01*
X56766666Y-31345104D02*
X56719047Y-31487961D01*
X56719047Y-31487961D02*
X56623809Y-31583200D01*
X56623809Y-31583200D02*
X56480952Y-31630819D01*
X56480952Y-31630819D02*
X56385714Y-31630819D01*
X57147619Y-30630819D02*
X57814285Y-30630819D01*
X57814285Y-30630819D02*
X57385714Y-31630819D01*
X85666666Y-78954819D02*
X85666666Y-79669104D01*
X85666666Y-79669104D02*
X85619047Y-79811961D01*
X85619047Y-79811961D02*
X85523809Y-79907200D01*
X85523809Y-79907200D02*
X85380952Y-79954819D01*
X85380952Y-79954819D02*
X85285714Y-79954819D01*
X86142857Y-79954819D02*
X86142857Y-78954819D01*
X86142857Y-78954819D02*
X86523809Y-78954819D01*
X86523809Y-78954819D02*
X86619047Y-79002438D01*
X86619047Y-79002438D02*
X86666666Y-79050057D01*
X86666666Y-79050057D02*
X86714285Y-79145295D01*
X86714285Y-79145295D02*
X86714285Y-79288152D01*
X86714285Y-79288152D02*
X86666666Y-79383390D01*
X86666666Y-79383390D02*
X86619047Y-79431009D01*
X86619047Y-79431009D02*
X86523809Y-79478628D01*
X86523809Y-79478628D02*
X86142857Y-79478628D01*
X87095238Y-79050057D02*
X87142857Y-79002438D01*
X87142857Y-79002438D02*
X87238095Y-78954819D01*
X87238095Y-78954819D02*
X87476190Y-78954819D01*
X87476190Y-78954819D02*
X87571428Y-79002438D01*
X87571428Y-79002438D02*
X87619047Y-79050057D01*
X87619047Y-79050057D02*
X87666666Y-79145295D01*
X87666666Y-79145295D02*
X87666666Y-79240533D01*
X87666666Y-79240533D02*
X87619047Y-79383390D01*
X87619047Y-79383390D02*
X87047619Y-79954819D01*
X87047619Y-79954819D02*
X87666666Y-79954819D01*
X77666666Y-83454819D02*
X77666666Y-82454819D01*
X77666666Y-82454819D02*
X77999999Y-83169104D01*
X77999999Y-83169104D02*
X78333332Y-82454819D01*
X78333332Y-82454819D02*
X78333332Y-83454819D01*
X78952380Y-83454819D02*
X78857142Y-83407200D01*
X78857142Y-83407200D02*
X78809523Y-83359580D01*
X78809523Y-83359580D02*
X78761904Y-83264342D01*
X78761904Y-83264342D02*
X78761904Y-82978628D01*
X78761904Y-82978628D02*
X78809523Y-82883390D01*
X78809523Y-82883390D02*
X78857142Y-82835771D01*
X78857142Y-82835771D02*
X78952380Y-82788152D01*
X78952380Y-82788152D02*
X79095237Y-82788152D01*
X79095237Y-82788152D02*
X79190475Y-82835771D01*
X79190475Y-82835771D02*
X79238094Y-82883390D01*
X79238094Y-82883390D02*
X79285713Y-82978628D01*
X79285713Y-82978628D02*
X79285713Y-83264342D01*
X79285713Y-83264342D02*
X79238094Y-83359580D01*
X79238094Y-83359580D02*
X79190475Y-83407200D01*
X79190475Y-83407200D02*
X79095237Y-83454819D01*
X79095237Y-83454819D02*
X78952380Y-83454819D01*
X80142856Y-83454819D02*
X80142856Y-82454819D01*
X80142856Y-83407200D02*
X80047618Y-83454819D01*
X80047618Y-83454819D02*
X79857142Y-83454819D01*
X79857142Y-83454819D02*
X79761904Y-83407200D01*
X79761904Y-83407200D02*
X79714285Y-83359580D01*
X79714285Y-83359580D02*
X79666666Y-83264342D01*
X79666666Y-83264342D02*
X79666666Y-82978628D01*
X79666666Y-82978628D02*
X79714285Y-82883390D01*
X79714285Y-82883390D02*
X79761904Y-82835771D01*
X79761904Y-82835771D02*
X79857142Y-82788152D01*
X79857142Y-82788152D02*
X80047618Y-82788152D01*
X80047618Y-82788152D02*
X80142856Y-82835771D01*
X80952380Y-82931009D02*
X81095237Y-82978628D01*
X81095237Y-82978628D02*
X81142856Y-83026247D01*
X81142856Y-83026247D02*
X81190475Y-83121485D01*
X81190475Y-83121485D02*
X81190475Y-83264342D01*
X81190475Y-83264342D02*
X81142856Y-83359580D01*
X81142856Y-83359580D02*
X81095237Y-83407200D01*
X81095237Y-83407200D02*
X80999999Y-83454819D01*
X80999999Y-83454819D02*
X80619047Y-83454819D01*
X80619047Y-83454819D02*
X80619047Y-82454819D01*
X80619047Y-82454819D02*
X80952380Y-82454819D01*
X80952380Y-82454819D02*
X81047618Y-82502438D01*
X81047618Y-82502438D02*
X81095237Y-82550057D01*
X81095237Y-82550057D02*
X81142856Y-82645295D01*
X81142856Y-82645295D02*
X81142856Y-82740533D01*
X81142856Y-82740533D02*
X81095237Y-82835771D01*
X81095237Y-82835771D02*
X81047618Y-82883390D01*
X81047618Y-82883390D02*
X80952380Y-82931009D01*
X80952380Y-82931009D02*
X80619047Y-82931009D01*
X82047618Y-82788152D02*
X82047618Y-83454819D01*
X81619047Y-82788152D02*
X81619047Y-83311961D01*
X81619047Y-83311961D02*
X81666666Y-83407200D01*
X81666666Y-83407200D02*
X81761904Y-83454819D01*
X81761904Y-83454819D02*
X81904761Y-83454819D01*
X81904761Y-83454819D02*
X81999999Y-83407200D01*
X81999999Y-83407200D02*
X82047618Y-83359580D01*
X82428571Y-82788152D02*
X82952380Y-82788152D01*
X82952380Y-82788152D02*
X82428571Y-83454819D01*
X82428571Y-83454819D02*
X82952380Y-83454819D01*
X83238095Y-82788152D02*
X83761904Y-82788152D01*
X83761904Y-82788152D02*
X83238095Y-83454819D01*
X83238095Y-83454819D02*
X83761904Y-83454819D01*
X84619047Y-83454819D02*
X84142857Y-83454819D01*
X84142857Y-83454819D02*
X84142857Y-82454819D01*
X84952381Y-82931009D02*
X85285714Y-82931009D01*
X85428571Y-83454819D02*
X84952381Y-83454819D01*
X84952381Y-83454819D02*
X84952381Y-82454819D01*
X84952381Y-82454819D02*
X85428571Y-82454819D01*
X85857143Y-83454819D02*
X85857143Y-82454819D01*
X85857143Y-82454819D02*
X86095238Y-82454819D01*
X86095238Y-82454819D02*
X86238095Y-82502438D01*
X86238095Y-82502438D02*
X86333333Y-82597676D01*
X86333333Y-82597676D02*
X86380952Y-82692914D01*
X86380952Y-82692914D02*
X86428571Y-82883390D01*
X86428571Y-82883390D02*
X86428571Y-83026247D01*
X86428571Y-83026247D02*
X86380952Y-83216723D01*
X86380952Y-83216723D02*
X86333333Y-83311961D01*
X86333333Y-83311961D02*
X86238095Y-83407200D01*
X86238095Y-83407200D02*
X86095238Y-83454819D01*
X86095238Y-83454819D02*
X85857143Y-83454819D01*
X87380952Y-83454819D02*
X86809524Y-83454819D01*
X87095238Y-83454819D02*
X87095238Y-82454819D01*
X87095238Y-82454819D02*
X87000000Y-82597676D01*
X87000000Y-82597676D02*
X86904762Y-82692914D01*
X86904762Y-82692914D02*
X86809524Y-82740533D01*
X70716666Y-71778819D02*
X70716666Y-72493104D01*
X70716666Y-72493104D02*
X70669047Y-72635961D01*
X70669047Y-72635961D02*
X70573809Y-72731200D01*
X70573809Y-72731200D02*
X70430952Y-72778819D01*
X70430952Y-72778819D02*
X70335714Y-72778819D01*
X71669047Y-71778819D02*
X71192857Y-71778819D01*
X71192857Y-71778819D02*
X71145238Y-72255009D01*
X71145238Y-72255009D02*
X71192857Y-72207390D01*
X71192857Y-72207390D02*
X71288095Y-72159771D01*
X71288095Y-72159771D02*
X71526190Y-72159771D01*
X71526190Y-72159771D02*
X71621428Y-72207390D01*
X71621428Y-72207390D02*
X71669047Y-72255009D01*
X71669047Y-72255009D02*
X71716666Y-72350247D01*
X71716666Y-72350247D02*
X71716666Y-72588342D01*
X71716666Y-72588342D02*
X71669047Y-72683580D01*
X71669047Y-72683580D02*
X71621428Y-72731200D01*
X71621428Y-72731200D02*
X71526190Y-72778819D01*
X71526190Y-72778819D02*
X71288095Y-72778819D01*
X71288095Y-72778819D02*
X71192857Y-72731200D01*
X71192857Y-72731200D02*
X71145238Y-72683580D01*
X58333333Y-64954819D02*
X58000000Y-64478628D01*
X57761905Y-64954819D02*
X57761905Y-63954819D01*
X57761905Y-63954819D02*
X58142857Y-63954819D01*
X58142857Y-63954819D02*
X58238095Y-64002438D01*
X58238095Y-64002438D02*
X58285714Y-64050057D01*
X58285714Y-64050057D02*
X58333333Y-64145295D01*
X58333333Y-64145295D02*
X58333333Y-64288152D01*
X58333333Y-64288152D02*
X58285714Y-64383390D01*
X58285714Y-64383390D02*
X58238095Y-64431009D01*
X58238095Y-64431009D02*
X58142857Y-64478628D01*
X58142857Y-64478628D02*
X57761905Y-64478628D01*
X58666667Y-63954819D02*
X59285714Y-63954819D01*
X59285714Y-63954819D02*
X58952381Y-64335771D01*
X58952381Y-64335771D02*
X59095238Y-64335771D01*
X59095238Y-64335771D02*
X59190476Y-64383390D01*
X59190476Y-64383390D02*
X59238095Y-64431009D01*
X59238095Y-64431009D02*
X59285714Y-64526247D01*
X59285714Y-64526247D02*
X59285714Y-64764342D01*
X59285714Y-64764342D02*
X59238095Y-64859580D01*
X59238095Y-64859580D02*
X59190476Y-64907200D01*
X59190476Y-64907200D02*
X59095238Y-64954819D01*
X59095238Y-64954819D02*
X58809524Y-64954819D01*
X58809524Y-64954819D02*
X58714286Y-64907200D01*
X58714286Y-64907200D02*
X58666667Y-64859580D01*
X76213333Y-34954819D02*
X75880000Y-34478628D01*
X75641905Y-34954819D02*
X75641905Y-33954819D01*
X75641905Y-33954819D02*
X76022857Y-33954819D01*
X76022857Y-33954819D02*
X76118095Y-34002438D01*
X76118095Y-34002438D02*
X76165714Y-34050057D01*
X76165714Y-34050057D02*
X76213333Y-34145295D01*
X76213333Y-34145295D02*
X76213333Y-34288152D01*
X76213333Y-34288152D02*
X76165714Y-34383390D01*
X76165714Y-34383390D02*
X76118095Y-34431009D01*
X76118095Y-34431009D02*
X76022857Y-34478628D01*
X76022857Y-34478628D02*
X75641905Y-34478628D01*
X77070476Y-33954819D02*
X76880000Y-33954819D01*
X76880000Y-33954819D02*
X76784762Y-34002438D01*
X76784762Y-34002438D02*
X76737143Y-34050057D01*
X76737143Y-34050057D02*
X76641905Y-34192914D01*
X76641905Y-34192914D02*
X76594286Y-34383390D01*
X76594286Y-34383390D02*
X76594286Y-34764342D01*
X76594286Y-34764342D02*
X76641905Y-34859580D01*
X76641905Y-34859580D02*
X76689524Y-34907200D01*
X76689524Y-34907200D02*
X76784762Y-34954819D01*
X76784762Y-34954819D02*
X76975238Y-34954819D01*
X76975238Y-34954819D02*
X77070476Y-34907200D01*
X77070476Y-34907200D02*
X77118095Y-34859580D01*
X77118095Y-34859580D02*
X77165714Y-34764342D01*
X77165714Y-34764342D02*
X77165714Y-34526247D01*
X77165714Y-34526247D02*
X77118095Y-34431009D01*
X77118095Y-34431009D02*
X77070476Y-34383390D01*
X77070476Y-34383390D02*
X76975238Y-34335771D01*
X76975238Y-34335771D02*
X76784762Y-34335771D01*
X76784762Y-34335771D02*
X76689524Y-34383390D01*
X76689524Y-34383390D02*
X76641905Y-34431009D01*
X76641905Y-34431009D02*
X76594286Y-34526247D01*
X39333333Y-34954819D02*
X39000000Y-34478628D01*
X38761905Y-34954819D02*
X38761905Y-33954819D01*
X38761905Y-33954819D02*
X39142857Y-33954819D01*
X39142857Y-33954819D02*
X39238095Y-34002438D01*
X39238095Y-34002438D02*
X39285714Y-34050057D01*
X39285714Y-34050057D02*
X39333333Y-34145295D01*
X39333333Y-34145295D02*
X39333333Y-34288152D01*
X39333333Y-34288152D02*
X39285714Y-34383390D01*
X39285714Y-34383390D02*
X39238095Y-34431009D01*
X39238095Y-34431009D02*
X39142857Y-34478628D01*
X39142857Y-34478628D02*
X38761905Y-34478628D01*
X39666667Y-33954819D02*
X40333333Y-33954819D01*
X40333333Y-33954819D02*
X39904762Y-34954819D01*
X30466666Y-30630819D02*
X30466666Y-31345104D01*
X30466666Y-31345104D02*
X30419047Y-31487961D01*
X30419047Y-31487961D02*
X30323809Y-31583200D01*
X30323809Y-31583200D02*
X30180952Y-31630819D01*
X30180952Y-31630819D02*
X30085714Y-31630819D01*
X30990476Y-31630819D02*
X31180952Y-31630819D01*
X31180952Y-31630819D02*
X31276190Y-31583200D01*
X31276190Y-31583200D02*
X31323809Y-31535580D01*
X31323809Y-31535580D02*
X31419047Y-31392723D01*
X31419047Y-31392723D02*
X31466666Y-31202247D01*
X31466666Y-31202247D02*
X31466666Y-30821295D01*
X31466666Y-30821295D02*
X31419047Y-30726057D01*
X31419047Y-30726057D02*
X31371428Y-30678438D01*
X31371428Y-30678438D02*
X31276190Y-30630819D01*
X31276190Y-30630819D02*
X31085714Y-30630819D01*
X31085714Y-30630819D02*
X30990476Y-30678438D01*
X30990476Y-30678438D02*
X30942857Y-30726057D01*
X30942857Y-30726057D02*
X30895238Y-30821295D01*
X30895238Y-30821295D02*
X30895238Y-31059390D01*
X30895238Y-31059390D02*
X30942857Y-31154628D01*
X30942857Y-31154628D02*
X30990476Y-31202247D01*
X30990476Y-31202247D02*
X31085714Y-31249866D01*
X31085714Y-31249866D02*
X31276190Y-31249866D01*
X31276190Y-31249866D02*
X31371428Y-31202247D01*
X31371428Y-31202247D02*
X31419047Y-31154628D01*
X31419047Y-31154628D02*
X31466666Y-31059390D01*
X92523809Y-27454819D02*
X92523809Y-26454819D01*
X92523809Y-26454819D02*
X92857142Y-27169104D01*
X92857142Y-27169104D02*
X93190475Y-26454819D01*
X93190475Y-26454819D02*
X93190475Y-27454819D01*
X93809523Y-27454819D02*
X93714285Y-27407200D01*
X93714285Y-27407200D02*
X93666666Y-27359580D01*
X93666666Y-27359580D02*
X93619047Y-27264342D01*
X93619047Y-27264342D02*
X93619047Y-26978628D01*
X93619047Y-26978628D02*
X93666666Y-26883390D01*
X93666666Y-26883390D02*
X93714285Y-26835771D01*
X93714285Y-26835771D02*
X93809523Y-26788152D01*
X93809523Y-26788152D02*
X93952380Y-26788152D01*
X93952380Y-26788152D02*
X94047618Y-26835771D01*
X94047618Y-26835771D02*
X94095237Y-26883390D01*
X94095237Y-26883390D02*
X94142856Y-26978628D01*
X94142856Y-26978628D02*
X94142856Y-27264342D01*
X94142856Y-27264342D02*
X94095237Y-27359580D01*
X94095237Y-27359580D02*
X94047618Y-27407200D01*
X94047618Y-27407200D02*
X93952380Y-27454819D01*
X93952380Y-27454819D02*
X93809523Y-27454819D01*
X94999999Y-27454819D02*
X94999999Y-26454819D01*
X94999999Y-27407200D02*
X94904761Y-27454819D01*
X94904761Y-27454819D02*
X94714285Y-27454819D01*
X94714285Y-27454819D02*
X94619047Y-27407200D01*
X94619047Y-27407200D02*
X94571428Y-27359580D01*
X94571428Y-27359580D02*
X94523809Y-27264342D01*
X94523809Y-27264342D02*
X94523809Y-26978628D01*
X94523809Y-26978628D02*
X94571428Y-26883390D01*
X94571428Y-26883390D02*
X94619047Y-26835771D01*
X94619047Y-26835771D02*
X94714285Y-26788152D01*
X94714285Y-26788152D02*
X94904761Y-26788152D01*
X94904761Y-26788152D02*
X94999999Y-26835771D01*
X95809523Y-26931009D02*
X95952380Y-26978628D01*
X95952380Y-26978628D02*
X95999999Y-27026247D01*
X95999999Y-27026247D02*
X96047618Y-27121485D01*
X96047618Y-27121485D02*
X96047618Y-27264342D01*
X96047618Y-27264342D02*
X95999999Y-27359580D01*
X95999999Y-27359580D02*
X95952380Y-27407200D01*
X95952380Y-27407200D02*
X95857142Y-27454819D01*
X95857142Y-27454819D02*
X95476190Y-27454819D01*
X95476190Y-27454819D02*
X95476190Y-26454819D01*
X95476190Y-26454819D02*
X95809523Y-26454819D01*
X95809523Y-26454819D02*
X95904761Y-26502438D01*
X95904761Y-26502438D02*
X95952380Y-26550057D01*
X95952380Y-26550057D02*
X95999999Y-26645295D01*
X95999999Y-26645295D02*
X95999999Y-26740533D01*
X95999999Y-26740533D02*
X95952380Y-26835771D01*
X95952380Y-26835771D02*
X95904761Y-26883390D01*
X95904761Y-26883390D02*
X95809523Y-26931009D01*
X95809523Y-26931009D02*
X95476190Y-26931009D01*
X96904761Y-26788152D02*
X96904761Y-27454819D01*
X96476190Y-26788152D02*
X96476190Y-27311961D01*
X96476190Y-27311961D02*
X96523809Y-27407200D01*
X96523809Y-27407200D02*
X96619047Y-27454819D01*
X96619047Y-27454819D02*
X96761904Y-27454819D01*
X96761904Y-27454819D02*
X96857142Y-27407200D01*
X96857142Y-27407200D02*
X96904761Y-27359580D01*
X97285714Y-26788152D02*
X97809523Y-26788152D01*
X97809523Y-26788152D02*
X97285714Y-27454819D01*
X97285714Y-27454819D02*
X97809523Y-27454819D01*
X98095238Y-26788152D02*
X98619047Y-26788152D01*
X98619047Y-26788152D02*
X98095238Y-27454819D01*
X98095238Y-27454819D02*
X98619047Y-27454819D01*
X99523809Y-27454819D02*
X98952381Y-27454819D01*
X99238095Y-27454819D02*
X99238095Y-26454819D01*
X99238095Y-26454819D02*
X99142857Y-26597676D01*
X99142857Y-26597676D02*
X99047619Y-26692914D01*
X99047619Y-26692914D02*
X98952381Y-26740533D01*
X44166666Y-84954819D02*
X44166666Y-85669104D01*
X44166666Y-85669104D02*
X44119047Y-85811961D01*
X44119047Y-85811961D02*
X44023809Y-85907200D01*
X44023809Y-85907200D02*
X43880952Y-85954819D01*
X43880952Y-85954819D02*
X43785714Y-85954819D01*
X44547619Y-84954819D02*
X45166666Y-84954819D01*
X45166666Y-84954819D02*
X44833333Y-85335771D01*
X44833333Y-85335771D02*
X44976190Y-85335771D01*
X44976190Y-85335771D02*
X45071428Y-85383390D01*
X45071428Y-85383390D02*
X45119047Y-85431009D01*
X45119047Y-85431009D02*
X45166666Y-85526247D01*
X45166666Y-85526247D02*
X45166666Y-85764342D01*
X45166666Y-85764342D02*
X45119047Y-85859580D01*
X45119047Y-85859580D02*
X45071428Y-85907200D01*
X45071428Y-85907200D02*
X44976190Y-85954819D01*
X44976190Y-85954819D02*
X44690476Y-85954819D01*
X44690476Y-85954819D02*
X44595238Y-85907200D01*
X44595238Y-85907200D02*
X44547619Y-85859580D01*
X88587142Y-83407200D02*
X88729999Y-83454819D01*
X88729999Y-83454819D02*
X88968094Y-83454819D01*
X88968094Y-83454819D02*
X89063332Y-83407200D01*
X89063332Y-83407200D02*
X89110951Y-83359580D01*
X89110951Y-83359580D02*
X89158570Y-83264342D01*
X89158570Y-83264342D02*
X89158570Y-83169104D01*
X89158570Y-83169104D02*
X89110951Y-83073866D01*
X89110951Y-83073866D02*
X89063332Y-83026247D01*
X89063332Y-83026247D02*
X88968094Y-82978628D01*
X88968094Y-82978628D02*
X88777618Y-82931009D01*
X88777618Y-82931009D02*
X88682380Y-82883390D01*
X88682380Y-82883390D02*
X88634761Y-82835771D01*
X88634761Y-82835771D02*
X88587142Y-82740533D01*
X88587142Y-82740533D02*
X88587142Y-82645295D01*
X88587142Y-82645295D02*
X88634761Y-82550057D01*
X88634761Y-82550057D02*
X88682380Y-82502438D01*
X88682380Y-82502438D02*
X88777618Y-82454819D01*
X88777618Y-82454819D02*
X89015713Y-82454819D01*
X89015713Y-82454819D02*
X89158570Y-82502438D01*
X89444285Y-82788152D02*
X89825237Y-82788152D01*
X89587142Y-82454819D02*
X89587142Y-83311961D01*
X89587142Y-83311961D02*
X89634761Y-83407200D01*
X89634761Y-83407200D02*
X89729999Y-83454819D01*
X89729999Y-83454819D02*
X89825237Y-83454819D01*
X90587142Y-83454819D02*
X90587142Y-82931009D01*
X90587142Y-82931009D02*
X90539523Y-82835771D01*
X90539523Y-82835771D02*
X90444285Y-82788152D01*
X90444285Y-82788152D02*
X90253809Y-82788152D01*
X90253809Y-82788152D02*
X90158571Y-82835771D01*
X90587142Y-83407200D02*
X90491904Y-83454819D01*
X90491904Y-83454819D02*
X90253809Y-83454819D01*
X90253809Y-83454819D02*
X90158571Y-83407200D01*
X90158571Y-83407200D02*
X90110952Y-83311961D01*
X90110952Y-83311961D02*
X90110952Y-83216723D01*
X90110952Y-83216723D02*
X90158571Y-83121485D01*
X90158571Y-83121485D02*
X90253809Y-83073866D01*
X90253809Y-83073866D02*
X90491904Y-83073866D01*
X90491904Y-83073866D02*
X90587142Y-83026247D01*
X90920476Y-82788152D02*
X91301428Y-82788152D01*
X91063333Y-82454819D02*
X91063333Y-83311961D01*
X91063333Y-83311961D02*
X91110952Y-83407200D01*
X91110952Y-83407200D02*
X91206190Y-83454819D01*
X91206190Y-83454819D02*
X91301428Y-83454819D01*
X92063333Y-82788152D02*
X92063333Y-83454819D01*
X91634762Y-82788152D02*
X91634762Y-83311961D01*
X91634762Y-83311961D02*
X91682381Y-83407200D01*
X91682381Y-83407200D02*
X91777619Y-83454819D01*
X91777619Y-83454819D02*
X91920476Y-83454819D01*
X91920476Y-83454819D02*
X92015714Y-83407200D01*
X92015714Y-83407200D02*
X92063333Y-83359580D01*
X92491905Y-83407200D02*
X92587143Y-83454819D01*
X92587143Y-83454819D02*
X92777619Y-83454819D01*
X92777619Y-83454819D02*
X92872857Y-83407200D01*
X92872857Y-83407200D02*
X92920476Y-83311961D01*
X92920476Y-83311961D02*
X92920476Y-83264342D01*
X92920476Y-83264342D02*
X92872857Y-83169104D01*
X92872857Y-83169104D02*
X92777619Y-83121485D01*
X92777619Y-83121485D02*
X92634762Y-83121485D01*
X92634762Y-83121485D02*
X92539524Y-83073866D01*
X92539524Y-83073866D02*
X92491905Y-82978628D01*
X92491905Y-82978628D02*
X92491905Y-82931009D01*
X92491905Y-82931009D02*
X92539524Y-82835771D01*
X92539524Y-82835771D02*
X92634762Y-82788152D01*
X92634762Y-82788152D02*
X92777619Y-82788152D01*
X92777619Y-82788152D02*
X92872857Y-82835771D01*
X93872857Y-83454819D02*
X93301429Y-83454819D01*
X93587143Y-83454819D02*
X93587143Y-82454819D01*
X93587143Y-82454819D02*
X93491905Y-82597676D01*
X93491905Y-82597676D02*
X93396667Y-82692914D01*
X93396667Y-82692914D02*
X93301429Y-82740533D01*
X31666666Y-83954819D02*
X31666666Y-84669104D01*
X31666666Y-84669104D02*
X31619047Y-84811961D01*
X31619047Y-84811961D02*
X31523809Y-84907200D01*
X31523809Y-84907200D02*
X31380952Y-84954819D01*
X31380952Y-84954819D02*
X31285714Y-84954819D01*
X32095238Y-84050057D02*
X32142857Y-84002438D01*
X32142857Y-84002438D02*
X32238095Y-83954819D01*
X32238095Y-83954819D02*
X32476190Y-83954819D01*
X32476190Y-83954819D02*
X32571428Y-84002438D01*
X32571428Y-84002438D02*
X32619047Y-84050057D01*
X32619047Y-84050057D02*
X32666666Y-84145295D01*
X32666666Y-84145295D02*
X32666666Y-84240533D01*
X32666666Y-84240533D02*
X32619047Y-84383390D01*
X32619047Y-84383390D02*
X32047619Y-84954819D01*
X32047619Y-84954819D02*
X32666666Y-84954819D01*
X21333333Y-70454819D02*
X21000000Y-69978628D01*
X20761905Y-70454819D02*
X20761905Y-69454819D01*
X20761905Y-69454819D02*
X21142857Y-69454819D01*
X21142857Y-69454819D02*
X21238095Y-69502438D01*
X21238095Y-69502438D02*
X21285714Y-69550057D01*
X21285714Y-69550057D02*
X21333333Y-69645295D01*
X21333333Y-69645295D02*
X21333333Y-69788152D01*
X21333333Y-69788152D02*
X21285714Y-69883390D01*
X21285714Y-69883390D02*
X21238095Y-69931009D01*
X21238095Y-69931009D02*
X21142857Y-69978628D01*
X21142857Y-69978628D02*
X20761905Y-69978628D01*
X22190476Y-69788152D02*
X22190476Y-70454819D01*
X21952381Y-69407200D02*
X21714286Y-70121485D01*
X21714286Y-70121485D02*
X22333333Y-70121485D01*
X18116666Y-85454819D02*
X18116666Y-86169104D01*
X18116666Y-86169104D02*
X18069047Y-86311961D01*
X18069047Y-86311961D02*
X17973809Y-86407200D01*
X17973809Y-86407200D02*
X17830952Y-86454819D01*
X17830952Y-86454819D02*
X17735714Y-86454819D01*
X19116666Y-86454819D02*
X18545238Y-86454819D01*
X18830952Y-86454819D02*
X18830952Y-85454819D01*
X18830952Y-85454819D02*
X18735714Y-85597676D01*
X18735714Y-85597676D02*
X18640476Y-85692914D01*
X18640476Y-85692914D02*
X18545238Y-85740533D01*
X16840476Y-30630819D02*
X16840476Y-31345104D01*
X16840476Y-31345104D02*
X16792857Y-31487961D01*
X16792857Y-31487961D02*
X16697619Y-31583200D01*
X16697619Y-31583200D02*
X16554762Y-31630819D01*
X16554762Y-31630819D02*
X16459524Y-31630819D01*
X17840476Y-31630819D02*
X17269048Y-31630819D01*
X17554762Y-31630819D02*
X17554762Y-30630819D01*
X17554762Y-30630819D02*
X17459524Y-30773676D01*
X17459524Y-30773676D02*
X17364286Y-30868914D01*
X17364286Y-30868914D02*
X17269048Y-30916533D01*
X18459524Y-30630819D02*
X18554762Y-30630819D01*
X18554762Y-30630819D02*
X18650000Y-30678438D01*
X18650000Y-30678438D02*
X18697619Y-30726057D01*
X18697619Y-30726057D02*
X18745238Y-30821295D01*
X18745238Y-30821295D02*
X18792857Y-31011771D01*
X18792857Y-31011771D02*
X18792857Y-31249866D01*
X18792857Y-31249866D02*
X18745238Y-31440342D01*
X18745238Y-31440342D02*
X18697619Y-31535580D01*
X18697619Y-31535580D02*
X18650000Y-31583200D01*
X18650000Y-31583200D02*
X18554762Y-31630819D01*
X18554762Y-31630819D02*
X18459524Y-31630819D01*
X18459524Y-31630819D02*
X18364286Y-31583200D01*
X18364286Y-31583200D02*
X18316667Y-31535580D01*
X18316667Y-31535580D02*
X18269048Y-31440342D01*
X18269048Y-31440342D02*
X18221429Y-31249866D01*
X18221429Y-31249866D02*
X18221429Y-31011771D01*
X18221429Y-31011771D02*
X18269048Y-30821295D01*
X18269048Y-30821295D02*
X18316667Y-30726057D01*
X18316667Y-30726057D02*
X18364286Y-30678438D01*
X18364286Y-30678438D02*
X18459524Y-30630819D01*
X39833333Y-70454819D02*
X39500000Y-69978628D01*
X39261905Y-70454819D02*
X39261905Y-69454819D01*
X39261905Y-69454819D02*
X39642857Y-69454819D01*
X39642857Y-69454819D02*
X39738095Y-69502438D01*
X39738095Y-69502438D02*
X39785714Y-69550057D01*
X39785714Y-69550057D02*
X39833333Y-69645295D01*
X39833333Y-69645295D02*
X39833333Y-69788152D01*
X39833333Y-69788152D02*
X39785714Y-69883390D01*
X39785714Y-69883390D02*
X39738095Y-69931009D01*
X39738095Y-69931009D02*
X39642857Y-69978628D01*
X39642857Y-69978628D02*
X39261905Y-69978628D01*
X40738095Y-69454819D02*
X40261905Y-69454819D01*
X40261905Y-69454819D02*
X40214286Y-69931009D01*
X40214286Y-69931009D02*
X40261905Y-69883390D01*
X40261905Y-69883390D02*
X40357143Y-69835771D01*
X40357143Y-69835771D02*
X40595238Y-69835771D01*
X40595238Y-69835771D02*
X40690476Y-69883390D01*
X40690476Y-69883390D02*
X40738095Y-69931009D01*
X40738095Y-69931009D02*
X40785714Y-70026247D01*
X40785714Y-70026247D02*
X40785714Y-70264342D01*
X40785714Y-70264342D02*
X40738095Y-70359580D01*
X40738095Y-70359580D02*
X40690476Y-70407200D01*
X40690476Y-70407200D02*
X40595238Y-70454819D01*
X40595238Y-70454819D02*
X40357143Y-70454819D01*
X40357143Y-70454819D02*
X40261905Y-70407200D01*
X40261905Y-70407200D02*
X40214286Y-70359580D01*
X67669104Y-51210839D02*
X67669104Y-50734649D01*
X67954819Y-51306077D02*
X66954819Y-50972744D01*
X66954819Y-50972744D02*
X67954819Y-50639411D01*
X67954819Y-49782268D02*
X67954819Y-50353696D01*
X67954819Y-50067982D02*
X66954819Y-50067982D01*
X66954819Y-50067982D02*
X67097676Y-50163220D01*
X67097676Y-50163220D02*
X67192914Y-50258458D01*
X67192914Y-50258458D02*
X67240533Y-50353696D01*
X58333333Y-70454819D02*
X58000000Y-69978628D01*
X57761905Y-70454819D02*
X57761905Y-69454819D01*
X57761905Y-69454819D02*
X58142857Y-69454819D01*
X58142857Y-69454819D02*
X58238095Y-69502438D01*
X58238095Y-69502438D02*
X58285714Y-69550057D01*
X58285714Y-69550057D02*
X58333333Y-69645295D01*
X58333333Y-69645295D02*
X58333333Y-69788152D01*
X58333333Y-69788152D02*
X58285714Y-69883390D01*
X58285714Y-69883390D02*
X58238095Y-69931009D01*
X58238095Y-69931009D02*
X58142857Y-69978628D01*
X58142857Y-69978628D02*
X57761905Y-69978628D01*
X58809524Y-70454819D02*
X59000000Y-70454819D01*
X59000000Y-70454819D02*
X59095238Y-70407200D01*
X59095238Y-70407200D02*
X59142857Y-70359580D01*
X59142857Y-70359580D02*
X59238095Y-70216723D01*
X59238095Y-70216723D02*
X59285714Y-70026247D01*
X59285714Y-70026247D02*
X59285714Y-69645295D01*
X59285714Y-69645295D02*
X59238095Y-69550057D01*
X59238095Y-69550057D02*
X59190476Y-69502438D01*
X59190476Y-69502438D02*
X59095238Y-69454819D01*
X59095238Y-69454819D02*
X58904762Y-69454819D01*
X58904762Y-69454819D02*
X58809524Y-69502438D01*
X58809524Y-69502438D02*
X58761905Y-69550057D01*
X58761905Y-69550057D02*
X58714286Y-69645295D01*
X58714286Y-69645295D02*
X58714286Y-69883390D01*
X58714286Y-69883390D02*
X58761905Y-69978628D01*
X58761905Y-69978628D02*
X58809524Y-70026247D01*
X58809524Y-70026247D02*
X58904762Y-70073866D01*
X58904762Y-70073866D02*
X59095238Y-70073866D01*
X59095238Y-70073866D02*
X59190476Y-70026247D01*
X59190476Y-70026247D02*
X59238095Y-69978628D01*
X59238095Y-69978628D02*
X59285714Y-69883390D01*
X108738095Y-84804819D02*
X108738095Y-83804819D01*
X108738095Y-84281009D02*
X109309523Y-84281009D01*
X109309523Y-84804819D02*
X109309523Y-83804819D01*
X110309523Y-84804819D02*
X109738095Y-84804819D01*
X110023809Y-84804819D02*
X110023809Y-83804819D01*
X110023809Y-83804819D02*
X109928571Y-83947676D01*
X109928571Y-83947676D02*
X109833333Y-84042914D01*
X109833333Y-84042914D02*
X109738095Y-84090533D01*
D12*
%TO.C,R2*%
X33820000Y-64500000D02*
X33930000Y-64500000D01*
X46180000Y-64500000D02*
X46070000Y-64500000D01*
X46070000Y-66870000D02*
X33930000Y-66870000D01*
X33930000Y-62130000D01*
X46070000Y-62130000D01*
X46070000Y-66870000D01*
%TO.C,U1*%
X77555000Y-42890000D02*
X77555000Y-63110000D01*
X77555000Y-42890000D02*
X103775000Y-42890000D01*
X77555000Y-44770000D02*
X75095000Y-44770000D01*
X77555000Y-45990000D02*
X75095000Y-45990000D01*
X77555000Y-48580000D02*
X75095000Y-48580000D01*
X77555000Y-49800000D02*
X75095000Y-49800000D01*
X77555000Y-52390000D02*
X75095000Y-52390000D01*
X77555000Y-53610000D02*
X75095000Y-53610000D01*
X77555000Y-56200000D02*
X75095000Y-56200000D01*
X77555000Y-57420000D02*
X75095000Y-57420000D01*
X77555000Y-60010000D02*
X75095000Y-60010000D01*
X77555000Y-61230000D02*
X75095000Y-61230000D01*
X77555000Y-63110000D02*
X103775000Y-63110000D01*
X103775000Y-42890000D02*
X103775000Y-63110000D01*
%TO.C,J8*%
X38290000Y-30210000D02*
X38290000Y-21300000D01*
X49610000Y-21300000D02*
X49610000Y-30210000D01*
X49610000Y-30210000D02*
X38290000Y-30210000D01*
X49900000Y-25585000D02*
X49900000Y-27115000D01*
%TO.C,R10*%
X14820000Y-34500000D02*
X14930000Y-34500000D01*
X27180000Y-34500000D02*
X27070000Y-34500000D01*
X27070000Y-36870000D02*
X14930000Y-36870000D01*
X14930000Y-32130000D01*
X27070000Y-32130000D01*
X27070000Y-36870000D01*
D13*
%TO.C,C1*%
X77500000Y-70500000D02*
X77500000Y-75500000D01*
X77500000Y-75500000D02*
X87500000Y-75500000D01*
X87500000Y-70500000D02*
X77500000Y-70500000D01*
X87500000Y-75500000D02*
X87500000Y-70500000D01*
D12*
%TO.C,Status2*%
X97670000Y-85455000D02*
X97670000Y-88545000D01*
X97670000Y-85455170D02*
G75*
G02*
X103220000Y-87000000I2560000J-1544830D01*
G01*
X103220000Y-87000000D02*
G75*
G02*
X97670000Y-88544830I-2990000J0D01*
G01*
X102730000Y-87000000D02*
G75*
G02*
X97730000Y-87000000I-2500000J0D01*
G01*
X97730000Y-87000000D02*
G75*
G02*
X102730000Y-87000000I2500000J0D01*
G01*
%TO.C,Clear1*%
X81700000Y-12250000D02*
X93900000Y-12250000D01*
X81700000Y-24450000D02*
X81700000Y-12250000D01*
X93900000Y-12250000D02*
X93900000Y-14240000D01*
X93900000Y-19540000D02*
X93900000Y-17160000D01*
X93900000Y-22460000D02*
X93900000Y-24450000D01*
X93900000Y-24450000D02*
X81700000Y-24450000D01*
X90450000Y-18350000D02*
G75*
G02*
X85150000Y-18350000I-2650000J0D01*
G01*
X85150000Y-18350000D02*
G75*
G02*
X90450000Y-18350000I2650000J0D01*
G01*
%TO.C,JP1*%
X80250000Y-78500000D02*
X83050000Y-78500000D01*
X80250000Y-80500000D02*
X80250000Y-78500000D01*
X83050000Y-78500000D02*
X83050000Y-80500000D01*
X83050000Y-80500000D02*
X80250000Y-80500000D01*
%TO.C,R8*%
X51820000Y-34500000D02*
X51930000Y-34500000D01*
X64180000Y-34500000D02*
X64070000Y-34500000D01*
X51930000Y-32130000D02*
X64070000Y-32130000D01*
X64070000Y-36870000D01*
X51930000Y-36870000D01*
X51930000Y-32130000D01*
%TO.C,J6*%
X64590000Y-30210000D02*
X64590000Y-21300000D01*
X75910000Y-21300000D02*
X75910000Y-30210000D01*
X75910000Y-30210000D02*
X64590000Y-30210000D01*
X76200000Y-25585000D02*
X76200000Y-27115000D01*
%TO.C,J4*%
X51950000Y-77915000D02*
X51950000Y-76385000D01*
X52240000Y-73290000D02*
X63560000Y-73290000D01*
X52240000Y-82200000D02*
X52240000Y-73290000D01*
X63560000Y-73290000D02*
X63560000Y-82200000D01*
%TO.C,J7*%
X51440000Y-30210000D02*
X51440000Y-21300000D01*
X62760000Y-21300000D02*
X62760000Y-30210000D01*
X62760000Y-30210000D02*
X51440000Y-30210000D01*
X63050000Y-25585000D02*
X63050000Y-27115000D01*
%TO.C,JP2*%
X88750000Y-78500000D02*
X91550000Y-78500000D01*
X88750000Y-80500000D02*
X88750000Y-78500000D01*
X91550000Y-78500000D02*
X91550000Y-80500000D01*
X91550000Y-80500000D02*
X88750000Y-80500000D01*
D13*
%TO.C,C3*%
X99500000Y-70500000D02*
X99500000Y-75500000D01*
X99500000Y-75500000D02*
X109500000Y-75500000D01*
X109500000Y-70500000D02*
X99500000Y-70500000D01*
X109500000Y-75500000D02*
X109500000Y-70500000D01*
D12*
%TO.C,ModBuzzLED1*%
X79435000Y-85455000D02*
X79435000Y-88545000D01*
X79435000Y-85455170D02*
G75*
G02*
X84985000Y-87000000I2560000J-1544830D01*
G01*
X84985000Y-87000000D02*
G75*
G02*
X79435000Y-88544830I-2990000J0D01*
G01*
X84495000Y-87000000D02*
G75*
G02*
X79495000Y-87000000I-2500000J0D01*
G01*
X79495000Y-87000000D02*
G75*
G02*
X84495000Y-87000000I2500000J0D01*
G01*
%TO.C,J5*%
X65100000Y-77915000D02*
X65100000Y-76385000D01*
X65390000Y-73290000D02*
X76710000Y-73290000D01*
X65390000Y-82200000D02*
X65390000Y-73290000D01*
X76710000Y-73290000D02*
X76710000Y-82200000D01*
%TO.C,R3*%
X52320000Y-64500000D02*
X52430000Y-64500000D01*
X64680000Y-64500000D02*
X64570000Y-64500000D01*
X64570000Y-66870000D02*
X52430000Y-66870000D01*
X52430000Y-62130000D01*
X64570000Y-62130000D01*
X64570000Y-66870000D01*
%TO.C,R6*%
X70200000Y-34500000D02*
X70310000Y-34500000D01*
X82560000Y-34500000D02*
X82450000Y-34500000D01*
X82450000Y-36870000D02*
X70310000Y-36870000D01*
X70310000Y-32130000D01*
X82450000Y-32130000D01*
X82450000Y-36870000D01*
%TO.C,R7*%
X33320000Y-34500000D02*
X33430000Y-34500000D01*
X45680000Y-34500000D02*
X45570000Y-34500000D01*
X33430000Y-32130000D02*
X45570000Y-32130000D01*
X45570000Y-36870000D01*
X33430000Y-36870000D01*
X33430000Y-32130000D01*
%TO.C,J9*%
X25140000Y-30210000D02*
X25140000Y-21300000D01*
X36460000Y-21300000D02*
X36460000Y-30210000D01*
X36460000Y-30210000D02*
X25140000Y-30210000D01*
X36750000Y-25585000D02*
X36750000Y-27115000D01*
%TO.C,ModBuzz1*%
X88350000Y-25400000D02*
X100550000Y-25400000D01*
X88350000Y-27390000D02*
X88350000Y-25400000D01*
X88350000Y-30310000D02*
X88350000Y-32690000D01*
X88350000Y-37600000D02*
X88350000Y-35610000D01*
X100550000Y-25400000D02*
X100550000Y-37600000D01*
X100550000Y-37600000D02*
X88350000Y-37600000D01*
X97100000Y-31500000D02*
G75*
G02*
X91800000Y-31500000I-2650000J0D01*
G01*
X91800000Y-31500000D02*
G75*
G02*
X97100000Y-31500000I2650000J0D01*
G01*
%TO.C,J3*%
X38800000Y-77915000D02*
X38800000Y-76385000D01*
X39090000Y-73290000D02*
X50410000Y-73290000D01*
X39090000Y-82200000D02*
X39090000Y-73290000D01*
X50410000Y-73290000D02*
X50410000Y-82200000D01*
%TO.C,Status1*%
X88670000Y-85455000D02*
X88670000Y-88545000D01*
X88670000Y-85455170D02*
G75*
G02*
X94220000Y-87000000I2560000J-1544830D01*
G01*
X94220000Y-87000000D02*
G75*
G02*
X88670000Y-88544830I-2990000J0D01*
G01*
X93730000Y-87000000D02*
G75*
G02*
X88730000Y-87000000I-2500000J0D01*
G01*
X88730000Y-87000000D02*
G75*
G02*
X93730000Y-87000000I2500000J0D01*
G01*
%TO.C,J2*%
X25650000Y-77915000D02*
X25650000Y-76385000D01*
X25940000Y-73290000D02*
X37260000Y-73290000D01*
X25940000Y-82200000D02*
X25940000Y-73290000D01*
X37260000Y-73290000D02*
X37260000Y-82200000D01*
%TO.C,R4*%
X15320000Y-70000000D02*
X15430000Y-70000000D01*
X27680000Y-70000000D02*
X27570000Y-70000000D01*
X15430000Y-67630000D02*
X27570000Y-67630000D01*
X27570000Y-72370000D01*
X15430000Y-72370000D01*
X15430000Y-67630000D01*
%TO.C,J1*%
X12500000Y-77915000D02*
X12500000Y-76385000D01*
X12790000Y-73290000D02*
X24110000Y-73290000D01*
X12790000Y-82200000D02*
X12790000Y-73290000D01*
X24110000Y-73290000D02*
X24110000Y-82200000D01*
%TO.C,R1*%
X15320000Y-64500000D02*
X15430000Y-64500000D01*
X27680000Y-64500000D02*
X27570000Y-64500000D01*
X27570000Y-66870000D02*
X15430000Y-66870000D01*
X15430000Y-62130000D01*
X27570000Y-62130000D01*
X27570000Y-66870000D01*
D13*
%TO.C,C2*%
X88500000Y-70500000D02*
X88500000Y-75500000D01*
X88500000Y-75500000D02*
X98500000Y-75500000D01*
X98500000Y-70500000D02*
X88500000Y-70500000D01*
X98500000Y-75500000D02*
X98500000Y-70500000D01*
D12*
%TO.C,J10*%
X11990000Y-30210000D02*
X11990000Y-21300000D01*
X23310000Y-21300000D02*
X23310000Y-30210000D01*
X23310000Y-30210000D02*
X11990000Y-30210000D01*
X23600000Y-25585000D02*
X23600000Y-27115000D01*
%TO.C,R5*%
X33820000Y-70000000D02*
X33930000Y-70000000D01*
X46180000Y-70000000D02*
X46070000Y-70000000D01*
X46070000Y-72370000D02*
X33930000Y-72370000D01*
X33930000Y-67630000D01*
X46070000Y-67630000D01*
X46070000Y-72370000D01*
%TO.C,A1*%
X11200000Y-45280000D02*
X12020000Y-45280000D01*
X11200000Y-53500000D02*
X11200000Y-45280000D01*
X11200000Y-53500000D02*
X12020000Y-53500000D01*
X12020000Y-45280000D02*
X12020000Y-45490000D01*
X12020000Y-45490000D02*
X13416000Y-45490000D01*
X12020000Y-53290000D02*
X13416000Y-53290000D01*
X12020000Y-53500000D02*
X12020000Y-53290000D01*
X12500000Y-39390000D02*
X12500000Y-41880000D01*
X12500000Y-41880000D02*
X13413520Y-41880000D01*
X12500000Y-43227939D02*
X12500000Y-41880000D01*
X12500000Y-45155000D02*
X12500000Y-44152061D01*
X12500000Y-53625000D02*
X12500000Y-45155000D01*
X12500000Y-54627939D02*
X12500000Y-53625000D01*
X12500000Y-56900000D02*
X12500000Y-55552060D01*
X12500000Y-56900000D02*
X13413520Y-56900000D01*
X12500000Y-59390000D02*
X12500000Y-56900000D01*
X12563000Y-59660000D02*
X63657000Y-59660000D01*
X13110000Y-38780000D02*
X63110000Y-38780000D01*
X13110000Y-60000000D02*
X63110000Y-60000000D01*
X14780000Y-60320000D02*
X13180000Y-60320000D01*
X15804000Y-45490000D02*
X17020000Y-45490000D01*
X15804000Y-53290000D02*
X17020000Y-53290000D01*
X15806480Y-41880000D02*
X60413520Y-41880000D01*
X15806480Y-56900000D02*
X60413520Y-56900000D01*
X17020000Y-45490000D02*
X17020000Y-53290000D01*
X62806480Y-41880000D02*
X63720000Y-41880000D01*
X62806480Y-56900000D02*
X63720000Y-56900000D01*
X63657000Y-39120000D02*
X12563000Y-39120000D01*
X63720000Y-43227939D02*
X63720000Y-39390000D01*
X63720000Y-44152061D02*
X63720000Y-45790000D01*
X63720000Y-45790000D02*
X63720000Y-52990000D01*
X63720000Y-52990000D02*
X63720000Y-54627939D01*
X63720000Y-59390000D02*
X63720000Y-55552061D01*
X12500000Y-39390000D02*
G75*
G02*
X13110000Y-38780000I610000J0D01*
G01*
X13110000Y-60000000D02*
G75*
G02*
X12500000Y-59390000I0J610000D01*
G01*
X63110000Y-38780000D02*
G75*
G02*
X63720000Y-39390000I0J-610000D01*
G01*
X63720000Y-59390000D02*
G75*
G02*
X63110000Y-60000000I-609901J-99D01*
G01*
%TO.C,R9*%
X52320000Y-70000000D02*
X52430000Y-70000000D01*
X64680000Y-70000000D02*
X64570000Y-70000000D01*
X52430000Y-67630000D02*
X64570000Y-67630000D01*
X64570000Y-72370000D01*
X52430000Y-72370000D01*
X52430000Y-67630000D01*
%TD*%
M02*
