%TF.GenerationSoftware,KiCad,Pcbnew,9.0.6-9.0.6~ubuntu25.04.1*%
%TF.CreationDate,2025-12-30T14:46:32-08:00*%
%TF.ProjectId,buzzer-pcb,62757a7a-6572-42d7-9063-622e6b696361,0*%
%TF.SameCoordinates,Original*%
%TF.FileFunction,Soldermask,Top*%
%TF.FilePolarity,Negative*%
%FSLAX46Y46*%
G04 Gerber Fmt 4.6, Leading zero omitted, Abs format (unit mm)*
G04 Created by KiCad (PCBNEW 9.0.6-9.0.6~ubuntu25.04.1) date 2025-12-30 14:46:32*
%MOMM*%
%LPD*%
G01*
G04 APERTURE LIST*
G04 Aperture macros list*
%AMRoundRect*
0 Rectangle with rounded corners*
0 $1 Rounding radius*
0 $2 $3 $4 $5 $6 $7 $8 $9 X,Y pos of 4 corners*
0 Add a 4 corners polygon primitive as box body*
4,1,4,$2,$3,$4,$5,$6,$7,$8,$9,$2,$3,0*
0 Add four circle primitives for the rounded corners*
1,1,$1+$1,$2,$3*
1,1,$1+$1,$4,$5*
1,1,$1+$1,$6,$7*
1,1,$1+$1,$8,$9*
0 Add four rect primitives between the rounded corners*
20,1,$1+$1,$2,$3,$4,$5,0*
20,1,$1+$1,$4,$5,$6,$7,0*
20,1,$1+$1,$6,$7,$8,$9,0*
20,1,$1+$1,$8,$9,$2,$3,0*%
%AMFreePoly0*
4,1,37,0.603843,0.796157,0.639018,0.796157,0.711114,0.766294,0.766294,0.711114,0.796157,0.639018,0.796157,0.603843,0.800000,0.600000,0.800000,-0.600000,0.796157,-0.603843,0.796157,-0.639018,0.766294,-0.711114,0.711114,-0.766294,0.639018,-0.796157,0.603843,-0.796157,0.600000,-0.800000,0.000000,-0.800000,0.000000,-0.796148,-0.078414,-0.796148,-0.232228,-0.765552,-0.377117,-0.705537,
-0.507515,-0.618408,-0.618408,-0.507515,-0.705537,-0.377117,-0.765552,-0.232228,-0.796148,-0.078414,-0.796148,0.078414,-0.765552,0.232228,-0.705537,0.377117,-0.618408,0.507515,-0.507515,0.618408,-0.377117,0.705537,-0.232228,0.765552,-0.078414,0.796148,0.000000,0.796148,0.000000,0.800000,0.600000,0.800000,0.603843,0.796157,0.603843,0.796157,$1*%
%AMFreePoly1*
4,1,37,0.000000,0.796148,0.078414,0.796148,0.232228,0.765552,0.377117,0.705537,0.507515,0.618408,0.618408,0.507515,0.705537,0.377117,0.765552,0.232228,0.796148,0.078414,0.796148,-0.078414,0.765552,-0.232228,0.705537,-0.377117,0.618408,-0.507515,0.507515,-0.618408,0.377117,-0.705537,0.232228,-0.765552,0.078414,-0.796148,0.000000,-0.796148,0.000000,-0.800000,-0.600000,-0.800000,
-0.603843,-0.796157,-0.639018,-0.796157,-0.711114,-0.766294,-0.766294,-0.711114,-0.796157,-0.639018,-0.796157,-0.603843,-0.800000,-0.600000,-0.800000,0.600000,-0.796157,0.603843,-0.796157,0.639018,-0.766294,0.711114,-0.711114,0.766294,-0.639018,0.796157,-0.603843,0.796157,-0.600000,0.800000,0.000000,0.800000,0.000000,0.796148,0.000000,0.796148,$1*%
G04 Aperture macros list end*
%ADD10C,2.400000*%
%ADD11C,3.300000*%
%ADD12R,4.500000X2.500000*%
%ADD13O,4.500000X2.500000*%
%ADD14C,3.250000*%
%ADD15RoundRect,0.250000X0.650000X0.650000X-0.650000X0.650000X-0.650000X-0.650000X0.650000X-0.650000X0*%
%ADD16C,1.800000*%
%ADD17C,1.512000*%
%ADD18R,1.800000X1.800000*%
%ADD19R,1.000000X1.500000*%
%ADD20RoundRect,0.250000X-0.650000X-0.650000X0.650000X-0.650000X0.650000X0.650000X-0.650000X0.650000X0*%
%ADD21RoundRect,0.200000X0.600000X-0.600000X0.600000X0.600000X-0.600000X0.600000X-0.600000X-0.600000X0*%
%ADD22C,1.600000*%
%ADD23FreePoly0,90.000000*%
%ADD24FreePoly1,90.000000*%
%ADD25C,3.200000*%
G04 APERTURE END LIST*
%TO.C,JP1*%
G36*
X81800000Y-80250000D02*
G01*
X81500000Y-80250000D01*
X81500000Y-78750000D01*
X81800000Y-78750000D01*
X81800000Y-80250000D01*
G37*
%TO.C,JP2*%
G36*
X90000000Y-78750000D02*
G01*
X90300000Y-78750000D01*
X90300000Y-80250000D01*
X90000000Y-80250000D01*
X90000000Y-78750000D01*
G37*
%TD*%
D10*
%TO.C,R2*%
X47620000Y-64500000D03*
X32380000Y-64500000D03*
%TD*%
D11*
%TO.C,U1*%
X97665000Y-53000000D03*
D12*
X72585000Y-45380000D03*
D13*
X72585000Y-49190000D03*
X72585000Y-53000000D03*
X72585000Y-56810000D03*
X72585000Y-60620000D03*
%TD*%
D14*
%TO.C,J8*%
X47700000Y-20000000D03*
X40200000Y-20000000D03*
D15*
X41980000Y-28890000D03*
D16*
X43250000Y-26350000D03*
X44520000Y-28890000D03*
X45790000Y-26350000D03*
%TD*%
D10*
%TO.C,R10*%
X28620000Y-34500000D03*
X13380000Y-34500000D03*
%TD*%
D17*
%TO.C,C1*%
X80000000Y-73000000D03*
X85000000Y-73000000D03*
%TD*%
D18*
%TO.C,Status2*%
X98960000Y-87000000D03*
D16*
X101500000Y-87000000D03*
%TD*%
D10*
%TO.C,Clear1*%
X94500000Y-21000000D03*
X94500000Y-15700000D03*
%TD*%
D19*
%TO.C,JP1*%
X82300000Y-79500000D03*
X81000000Y-79500000D03*
%TD*%
D10*
%TO.C,R8*%
X50380000Y-34500000D03*
X65620000Y-34500000D03*
%TD*%
D14*
%TO.C,J6*%
X74000000Y-20000000D03*
X66500000Y-20000000D03*
D15*
X68280000Y-28890000D03*
D16*
X69550000Y-26350000D03*
X70820000Y-28890000D03*
X72090000Y-26350000D03*
%TD*%
D14*
%TO.C,J4*%
X54150000Y-83500000D03*
X61650000Y-83500000D03*
D20*
X59870000Y-74610000D03*
D16*
X58600000Y-77150000D03*
X57330000Y-74610000D03*
X56060000Y-77150000D03*
%TD*%
D14*
%TO.C,J7*%
X60850000Y-20000000D03*
X53350000Y-20000000D03*
D15*
X55130000Y-28890000D03*
D16*
X56400000Y-26350000D03*
X57670000Y-28890000D03*
X58940000Y-26350000D03*
%TD*%
D19*
%TO.C,JP2*%
X89500000Y-79500000D03*
X90800000Y-79500000D03*
%TD*%
D17*
%TO.C,C3*%
X102000000Y-73000000D03*
X107000000Y-73000000D03*
%TD*%
D18*
%TO.C,ModBuzzLED1*%
X80725000Y-87000000D03*
D16*
X83265000Y-87000000D03*
%TD*%
D14*
%TO.C,J5*%
X67300000Y-83500000D03*
X74800000Y-83500000D03*
D20*
X73020000Y-74610000D03*
D16*
X71750000Y-77150000D03*
X70480000Y-74610000D03*
X69210000Y-77150000D03*
%TD*%
D10*
%TO.C,R3*%
X66120000Y-64500000D03*
X50880000Y-64500000D03*
%TD*%
%TO.C,R6*%
X84000000Y-34500000D03*
X68760000Y-34500000D03*
%TD*%
%TO.C,R7*%
X31880000Y-34500000D03*
X47120000Y-34500000D03*
%TD*%
D14*
%TO.C,J9*%
X34550000Y-20000000D03*
X27050000Y-20000000D03*
D15*
X28830000Y-28890000D03*
D16*
X30100000Y-26350000D03*
X31370000Y-28890000D03*
X32640000Y-26350000D03*
%TD*%
D10*
%TO.C,ModBuzz1*%
X87750000Y-28850000D03*
X87750000Y-34150000D03*
%TD*%
D14*
%TO.C,J3*%
X41000000Y-83500000D03*
X48500000Y-83500000D03*
D20*
X46720000Y-74610000D03*
D16*
X45450000Y-77150000D03*
X44180000Y-74610000D03*
X42910000Y-77150000D03*
%TD*%
D18*
%TO.C,Status1*%
X89960000Y-87000000D03*
D16*
X92500000Y-87000000D03*
%TD*%
D14*
%TO.C,J2*%
X27850000Y-83500000D03*
X35350000Y-83500000D03*
D20*
X33570000Y-74610000D03*
D16*
X32300000Y-77150000D03*
X31030000Y-74610000D03*
X29760000Y-77150000D03*
%TD*%
D10*
%TO.C,R4*%
X13880000Y-70000000D03*
X29120000Y-70000000D03*
%TD*%
D14*
%TO.C,J1*%
X14700000Y-83500000D03*
X22200000Y-83500000D03*
D20*
X20420000Y-74610000D03*
D16*
X19150000Y-77150000D03*
X17880000Y-74610000D03*
X16610000Y-77150000D03*
%TD*%
D10*
%TO.C,R1*%
X29120000Y-64500000D03*
X13880000Y-64500000D03*
%TD*%
D17*
%TO.C,C2*%
X91000000Y-73000000D03*
X96000000Y-73000000D03*
%TD*%
D14*
%TO.C,J10*%
X21400000Y-20000000D03*
X13900000Y-20000000D03*
D15*
X15680000Y-28890000D03*
D16*
X16950000Y-26350000D03*
X18220000Y-28890000D03*
X19490000Y-26350000D03*
%TD*%
D10*
%TO.C,R5*%
X47620000Y-70000000D03*
X32380000Y-70000000D03*
%TD*%
D21*
%TO.C,A1*%
X13980000Y-58280000D03*
D22*
X16520000Y-58280000D03*
D23*
X19060000Y-58280000D03*
D22*
X21600000Y-58280000D03*
X24140000Y-58280000D03*
X26680000Y-58280000D03*
X29220000Y-58280000D03*
D23*
X31760000Y-58280000D03*
D22*
X34300000Y-58280000D03*
X36840000Y-58280000D03*
X39380000Y-58280000D03*
X41920000Y-58280000D03*
D23*
X44460000Y-58280000D03*
D22*
X47000000Y-58280000D03*
X49540000Y-58280000D03*
X52080000Y-58280000D03*
X54620000Y-58280000D03*
D23*
X57160000Y-58280000D03*
D22*
X59700000Y-58280000D03*
X62240000Y-58280000D03*
X62240000Y-40500000D03*
X59700000Y-40500000D03*
D24*
X57160000Y-40500000D03*
D22*
X54620000Y-40500000D03*
X52080000Y-40500000D03*
X49540000Y-40500000D03*
X47000000Y-40500000D03*
D24*
X44460000Y-40500000D03*
D22*
X41920000Y-40500000D03*
X39380000Y-40500000D03*
X36840000Y-40500000D03*
X34300000Y-40500000D03*
D24*
X31760000Y-40500000D03*
D22*
X29220000Y-40500000D03*
X26680000Y-40500000D03*
X24140000Y-40500000D03*
X21600000Y-40500000D03*
D24*
X19060000Y-40500000D03*
D22*
X16520000Y-40500000D03*
X13980000Y-40500000D03*
%TD*%
D10*
%TO.C,R9*%
X50880000Y-70000000D03*
X66120000Y-70000000D03*
%TD*%
D25*
%TO.C,H1*%
X109500000Y-88500000D03*
%TD*%
%TO.C,H2*%
X109500000Y-15000000D03*
%TD*%
M02*
