M48
; DRILL file {KiCad 9.0.6-9.0.6~ubuntu25.04.1} date 2025-12-30T14:46:35-0800
; FORMAT={-:-/ absolute / metric / decimal}
; #@! TF.CreationDate,2025-12-30T14:46:35-08:00
; #@! TF.GenerationSoftware,Kicad,Pcbnew,9.0.6-9.0.6~ubuntu25.04.1
; #@! TF.FileFunction,Plated,1,2,PTH
FMAT,2
METRIC
; #@! TA.AperFunction,Plated,PTH,ViaDrill
T1C0.300
; #@! TA.AperFunction,Plated,PTH,ComponentDrill
T2C0.800
; #@! TA.AperFunction,Plated,PTH,ComponentDrill
T3C0.900
; #@! TA.AperFunction,Plated,PTH,ComponentDrill
T4C1.000
; #@! TA.AperFunction,Plated,PTH,ComponentDrill
T5C1.200
; #@! TA.AperFunction,Plated,PTH,ComponentDrill
T6C1.500
%
G90
G05
T1
X17.284Y-66.694
X27.159Y-78.65
X27.984Y-79.481
X32.832Y-24.403
X33.327Y-66.937
X33.382Y-30.785
X39.011Y-77.853
X41.973Y-60.716
X48.82Y-30.141
X49.127Y-71.227
X51.391Y-37.646
X53.617Y-61.02
X59.866Y-30.167
X66.135Y-77.698
X67.734Y-76.602
X84.15Y-57.273
X86.417Y-60.716
X88.449Y-79.346
X101.034Y-66.891
T2
X80.0Y-73.0
X85.0Y-73.0
X91.0Y-73.0
X96.0Y-73.0
X102.0Y-73.0
X107.0Y-73.0
T3
X15.68Y-28.89
X16.61Y-77.15
X16.95Y-26.35
X17.88Y-74.61
X18.22Y-28.89
X19.15Y-77.15
X19.49Y-26.35
X20.42Y-74.61
X28.83Y-28.89
X29.76Y-77.15
X30.1Y-26.35
X31.03Y-74.61
X31.37Y-28.89
X32.3Y-77.15
X32.64Y-26.35
X33.57Y-74.61
X41.98Y-28.89
X42.91Y-77.15
X43.25Y-26.35
X44.18Y-74.61
X44.52Y-28.89
X45.45Y-77.15
X45.79Y-26.35
X46.72Y-74.61
X55.13Y-28.89
X56.06Y-77.15
X56.4Y-26.35
X57.33Y-74.61
X57.67Y-28.89
X58.6Y-77.15
X58.94Y-26.35
X59.87Y-74.61
X68.28Y-28.89
X69.21Y-77.15
X69.55Y-26.35
X70.48Y-74.61
X70.82Y-28.89
X71.75Y-77.15
X72.09Y-26.35
X73.02Y-74.61
X80.725Y-87.0
X83.265Y-87.0
X89.96Y-87.0
X92.5Y-87.0
X98.96Y-87.0
X101.5Y-87.0
T4
X13.98Y-40.5
X13.98Y-58.28
X16.52Y-40.5
X16.52Y-58.28
X19.06Y-40.5
X19.06Y-58.28
X21.6Y-40.5
X21.6Y-58.28
X24.14Y-40.5
X24.14Y-58.28
X26.68Y-40.5
X26.68Y-58.28
X29.22Y-40.5
X29.22Y-58.28
X31.76Y-40.5
X31.76Y-58.28
X34.3Y-40.5
X34.3Y-58.28
X36.84Y-40.5
X36.84Y-58.28
X39.38Y-40.5
X39.38Y-58.28
X41.92Y-40.5
X41.92Y-58.28
X44.46Y-40.5
X44.46Y-58.28
X47.0Y-40.5
X47.0Y-58.28
X49.54Y-40.5
X49.54Y-58.28
X52.08Y-40.5
X52.08Y-58.28
X54.62Y-40.5
X54.62Y-58.28
X57.16Y-40.5
X57.16Y-58.28
X59.7Y-40.5
X59.7Y-58.28
X62.24Y-40.5
X62.24Y-58.28
T5
X13.38Y-34.5
X13.88Y-64.5
X13.88Y-70.0
X28.62Y-34.5
X29.12Y-64.5
X29.12Y-70.0
X31.88Y-34.5
X32.38Y-64.5
X32.38Y-70.0
X47.12Y-34.5
X47.62Y-64.5
X47.62Y-70.0
X50.38Y-34.5
X50.88Y-64.5
X50.88Y-70.0
X65.62Y-34.5
X66.12Y-64.5
X66.12Y-70.0
X68.76Y-34.5
X84.0Y-34.5
X87.75Y-28.85
X87.75Y-34.15
X94.5Y-15.7
X94.5Y-21.0
T6
X72.585Y-45.38
X72.585Y-49.19
X72.585Y-53.0
X72.585Y-56.81
X72.585Y-60.62
M30
