M48
; DRILL file {KiCad 9.0.6-9.0.6~ubuntu25.04.1} date 2025-12-30T14:46:35-0800
; FORMAT={-:-/ absolute / metric / decimal}
; #@! TF.CreationDate,2025-12-30T14:46:35-08:00
; #@! TF.GenerationSoftware,Kicad,Pcbnew,9.0.6-9.0.6~ubuntu25.04.1
; #@! TF.FileFunction,NonPlated,1,2,NPTH
FMAT,2
METRIC
; #@! TA.AperFunction,NonPlated,NPTH,ComponentDrill
T1C3.200
; #@! TA.AperFunction,NonPlated,NPTH,ComponentDrill
T2C3.250
; #@! TA.AperFunction,NonPlated,NPTH,ComponentDrill
T3C3.300
%
G90
G05
T1
X14.7Y-83.5
X21.4Y-20.0
X27.85Y-83.5
X34.55Y-20.0
X41.0Y-83.5
X47.7Y-20.0
X54.15Y-83.5
X60.85Y-20.0
X67.3Y-83.5
X74.0Y-20.0
X109.5Y-15.0
X109.5Y-88.5
T2
X13.9Y-20.0
X22.2Y-83.5
X27.05Y-20.0
X35.35Y-83.5
X40.2Y-20.0
X48.5Y-83.5
X53.35Y-20.0
X61.65Y-83.5
X66.5Y-20.0
X74.8Y-83.5
T3
X97.665Y-53.0
M30
